<?xml version="1.0" standalone="no"?>
<!DOCTYPE svg PUBLIC "-//W3C//DTD SVG 20010904//EN"
 "http://www.w3.org/TR/2001/REC-SVG-20010904/DTD/svg10.dtd">
<svg version="1.0" xmlns="http://www.w3.org/2000/svg"
 width="449.000000pt" height="449.000000pt" viewBox="0 0 449.000000 449.000000"
 preserveAspectRatio="xMidYMid meet">
<metadata>
Created by potrace 1.14, written by Peter Selinger 2001-2017
</metadata>
<g transform="translate(0.000000,449.000000) scale(0.100000,-0.100000)"
fill="#000000" stroke="none">
<path d="M0 4482 c0 -5 19 -24 42 -43 64 -52 110 -92 137 -116 14 -12 49 -41
78 -65 96 -77 273 -229 273 -234 0 -7 -56 32 -101 70 -110 94 -141 118 -145
114 -2 -3 24 -27 59 -55 65 -54 125 -113 114 -113 -5 0 -29 20 -132 109 -28
24 -162 132 -194 156 -14 10 -48 39 -76 63 l-50 45 -3 -69 c-3 -66 -2 -70 28
-97 33 -30 31 -51 -4 -45 -22 4 -23 1 -25 -85 l-2 -90 23 17 c13 9 29 19 36
22 22 11 63 -18 78 -54 17 -41 19 -112 3 -112 -8 0 -8 -4 -1 -12 5 -7 13 -34
17 -60 7 -45 6 -48 -15 -48 -13 0 -20 -5 -17 -12 4 -13 -29 -48 -45 -48 -5 0
-6 -4 -3 -10 3 -5 -5 -21 -19 -35 -15 -14 -26 -30 -26 -36 0 -5 -6 -12 -13
-15 -20 -7 -24 -244 -5 -244 9 0 9 -3 -2 -10 -8 -5 -11 -10 -5 -10 6 0 20 -3
33 -6 21 -6 23 -4 21 27 -2 19 -1 50 1 69 l3 35 7 -40 c7 -39 7 -39 9 -7 0 17
6 32 12 32 6 0 9 -9 6 -20 -3 -11 -1 -18 4 -14 5 3 9 11 9 19 0 7 7 15 15 19
12 4 15 -5 14 -52 -2 -111 -18 -125 -102 -88 l-37 16 0 -80 0 -81 32 -13 c18
-8 52 -14 75 -14 23 -1 50 -5 60 -10 10 -5 32 -12 48 -16 29 -7 29 -7 10 9
-20 16 -20 16 4 9 16 -4 21 -3 17 5 -9 14 -9 14 67 -9 46 -14 66 -26 70 -40 7
-25 -4 -25 -73 1 -31 12 -50 15 -42 8 8 -9 12 -58 12 -170 0 -87 4 -159 9
-161 5 -1 12 -152 15 -335 6 -272 10 -337 22 -363 9 -17 14 -44 12 -60 l-4
-29 21 23 c12 13 34 31 49 42 31 20 31 23 8 212 -5 34 -5 62 -1 62 4 0 10 -30
14 -67 9 -88 15 -114 26 -107 5 3 9 -1 9 -10 0 -8 -5 -16 -12 -18 -8 -3 -8 -9
-1 -21 9 -17 11 -17 34 1 13 10 32 21 41 25 10 3 19 14 19 24 4 53 -2 374 -7
411 -6 38 -3 46 22 71 32 33 56 30 72 -7 8 -19 10 -20 6 -5 -7 29 10 59 36 66
15 4 20 0 20 -14 0 -10 9 -28 20 -39 15 -15 22 -43 30 -107 12 -107 12 -103 2
-103 -11 0 -32 91 -32 135 0 37 -16 56 -26 30 -5 -12 -9 -13 -20 -4 -11 9 -14
9 -14 0 0 -7 -4 -9 -10 -6 -5 3 -10 1 -10 -5 0 -7 6 -10 14 -7 10 4 17 -3 21
-23 3 -16 13 -34 21 -41 8 -6 14 -21 14 -33 -1 -18 -2 -19 -10 -4 -11 18 -70
22 -70 4 0 -6 -4 -6 -11 1 -7 7 -9 19 -5 28 4 12 10 14 25 5 11 -6 22 -6 25
-1 3 5 -3 11 -14 14 -14 4 -20 14 -20 34 0 16 -4 33 -9 39 -5 5 -11 18 -14 29
-2 11 -3 4 -2 -15 3 -31 2 -33 -7 -12 -21 42 -27 21 -26 -90 1 -95 2 -106 10
-70 5 24 11 42 13 40 7 -8 -8 -107 -16 -102 -5 3 -9 -6 -9 -19 0 -14 7 -27 15
-31 10 -3 15 -19 15 -46 0 -36 2 -40 18 -32 9 5 23 7 30 5 8 -3 12 6 12 26 0
38 17 41 23 4 l4 -28 3 30 c2 19 7 2 15 -45 11 -72 12 -74 24 -46 11 28 12 28
26 10 14 -18 14 -18 15 8 0 31 -18 47 -30 27 -6 -9 -10 -6 -14 12 -11 54 -15
168 -7 174 10 5 18 -39 24 -125 2 -29 4 -19 5 28 1 41 6 72 12 72 10 0 5 446
-6 483 -7 23 -27 22 -49 -3 -23 -26 -59 -26 -85 0 -19 19 -20 30 -15 311 3
160 8 295 11 300 3 5 23 12 45 15 21 4 39 12 39 19 0 16 51 27 64 14 6 -5 40
-9 77 -9 l66 0 -5 -27 c-4 -20 -7 -23 -10 -10 -3 13 -14 17 -50 18 -26 1 -64
2 -84 3 -20 2 -35 -1 -32 -6 3 -4 12 -8 20 -8 8 0 14 -5 14 -11 0 -8 4 -9 13
0 8 6 17 8 20 4 7 -6 -21 -32 -35 -33 -5 0 -8 6 -8 13 0 21 -79 12 -101 -12
-11 -12 -16 -21 -11 -21 13 0 22 -103 10 -117 -5 -7 -8 -20 -5 -30 3 -13 5
-12 6 6 0 13 4 21 7 18 4 -3 15 -2 25 3 10 6 43 11 74 11 44 1 61 -3 79 -20
12 -11 33 -21 46 -21 23 0 23 1 17 89 -5 74 -3 89 8 84 19 -7 26 -183 8 -198
-17 -14 0 -40 21 -32 15 6 16 22 10 142 -7 134 -7 135 14 135 31 0 27 16 -8
37 -35 21 -34 37 3 41 24 3 27 8 27 41 0 44 12 51 96 51 44 0 52 -3 62 -24 10
-23 15 -24 109 -24 76 1 88 2 53 8 -39 6 -42 8 -22 15 18 6 20 10 10 16 -8 6
0 9 24 9 29 0 36 -3 32 -15 -5 -12 2 -15 28 -15 19 0 39 -5 45 -11 8 -8 17 -8
31 0 24 13 43 15 23 2 -11 -7 -10 -10 5 -15 11 -3 25 -15 32 -26 14 -23 0 -27
-18 -5 -16 19 -34 19 -49 1 -8 -10 -9 -15 -1 -18 6 -2 11 -14 12 -28 1 -14 13
-37 27 -53 25 -27 37 -28 86 -7 32 14 106 26 152 25 23 -1 40 2 37 7 -3 4 7
10 22 14 19 5 31 2 38 -8 6 -8 33 -18 60 -22 58 -9 76 -15 76 -26 0 -5 -10
-11 -22 -13 -13 -2 -4 -5 20 -6 47 -1 53 10 19 35 l-22 16 22 -5 c18 -4 23 2
34 39 8 24 22 54 34 67 25 29 65 84 65 92 0 6 -882 -4 -1157 -13 -164 -6 -193
-5 -201 8 -8 13 30 15 317 17 179 1 490 4 691 8 361 6 365 6 400 29 19 13 42
26 50 29 8 3 -68 6 -170 6 -102 1 -333 3 -515 5 -197 2 -288 0 -225 -4 71 -5
10 -7 -188 -5 -206 1 -296 5 -304 13 -9 9 54 12 263 12 150 0 333 2 404 4 307
10 797 14 760 7 -27 -5 0 -7 79 -7 65 1 108 4 95 7 -36 9 -6 18 78 21 67 3 85
-5 58 -24 -5 -4 8 -8 30 -9 31 0 36 -2 20 -9 -11 -4 -38 -6 -60 -3 l-40 6 19
-22 c14 -16 16 -21 5 -21 -12 0 -12 -2 0 -9 8 -6 24 -6 38 0 28 11 30 -2 3
-19 -12 -7 -18 -17 -15 -22 3 -6 1 -10 -4 -10 -6 0 -11 5 -11 11 0 7 -9 9 -24
5 -16 -4 -26 -1 -29 9 -4 9 -1 12 9 8 7 -3 14 0 14 6 0 17 -30 13 -37 -4 -3
-9 -22 -23 -42 -31 -35 -15 -37 -14 -59 11 -12 15 -20 31 -17 36 8 12 41 11
68 -2 22 -10 22 -10 2 6 -15 12 -32 14 -68 10 -64 -9 -113 -35 -175 -90 -29
-26 -52 -42 -52 -36 0 20 84 94 133 116 27 13 44 26 39 29 -15 9 -52 -8 -96
-43 -21 -17 -43 -31 -47 -31 -5 0 -9 -6 -9 -13 0 -8 -9 -22 -20 -32 -11 -10
-20 -24 -20 -31 0 -7 -7 -19 -15 -28 -23 -23 -43 -76 -51 -134 -3 -29 -10 -52
-15 -52 -5 0 -9 5 -9 10 0 7 -19 10 -44 9 -39 -2 -44 -5 -35 -20 5 -10 14 -21
19 -24 22 -13 10 -66 -19 -91 -17 -14 -33 -34 -36 -44 -8 -25 -41 -26 -54 -2
-9 14 -10 11 -11 -17 0 -19 -6 -42 -14 -50 -15 -18 -29 -91 -17 -91 5 0 11 12
15 28 7 32 70 106 86 100 6 -2 -3 -17 -20 -35 -17 -17 -41 -57 -54 -90 -21
-49 -29 -59 -55 -64 -27 -6 -34 -3 -45 20 -7 14 -11 32 -9 39 3 7 -1 10 -11 6
-20 -8 -20 -18 -1 -34 22 -18 9 -30 -34 -30 -47 0 -58 13 -64 70 -3 43 -4 42
-5 -11 l-2 -56 -57 -7 c-32 -3 -83 -2 -114 2 -31 5 -65 5 -75 1 -10 -4 -85 -8
-166 -8 -83 -1 -148 -5 -148 -10 0 -5 -3 -16 -6 -25 -4 -12 0 -16 16 -16 11 0
19 -4 16 -9 -3 -5 -45 -7 -94 -6 -48 2 -99 0 -113 -6 l-26 -10 -6 -196 c-10
-271 -9 -361 3 -368 16 -10 12 -108 -6 -143 -8 -18 -14 -44 -12 -59 3 -27 4
-28 68 -28 64 0 65 0 74 -31 7 -22 21 -37 45 -49 36 -17 106 -58 173 -102 46
-31 51 -45 33 -89 -14 -34 -14 -35 23 -69 26 -24 32 -35 20 -35 -9 0 -25 11
-36 25 -11 14 -25 25 -32 25 -8 0 -10 8 -5 23 22 69 21 70 -53 120 -38 26 -89
56 -113 66 -24 11 -57 28 -74 37 -53 30 -69 37 -116 49 -34 9 -50 10 -58 2 -6
-6 -11 -7 -11 -1 0 5 -28 11 -62 12 -35 2 -67 8 -73 14 -7 7 -7 9 1 5 5 -3 29
-1 53 5 30 8 41 15 37 25 -4 8 -6 22 -7 31 0 10 -5 5 -11 -11 -11 -31 -31 -31
-36 0 -2 15 -8 19 -22 16 -14 -4 -23 2 -30 18 -8 18 -9 6 -5 -47 5 -64 4 -73
-18 -95 -37 -38 -69 -88 -62 -98 3 -5 -4 -12 -15 -16 -11 -3 -20 -10 -20 -15
0 -6 11 -5 26 0 33 13 34 13 34 -6 0 -10 -6 -14 -15 -10 -8 3 -15 0 -15 -6 0
-16 40 -48 61 -48 10 0 26 -11 35 -25 9 -14 19 -23 22 -20 3 2 19 -4 36 -14
17 -10 46 -21 65 -25 19 -3 43 -14 53 -23 17 -16 17 -17 -2 -30 -13 -9 -42
-13 -85 -12 -66 2 -83 12 -42 25 38 12 37 27 -1 51 -49 30 -64 29 -28 -2 16
-14 26 -28 22 -32 -4 -4 -10 -3 -14 3 -4 6 -17 14 -29 18 -34 11 -73 45 -67
60 3 7 -2 16 -10 19 -10 4 -16 1 -16 -9 0 -8 -5 -12 -11 -8 -6 3 -9 14 -6 24
3 10 -3 27 -13 38 -24 25 -22 73 2 103 14 16 18 18 14 7 -7 -24 1 -23 14 1 12
24 -3 23 -45 -4 -54 -34 -67 -48 -53 -57 9 -5 6 -8 -8 -8 -12 0 -27 -7 -34
-15 -11 -13 -7 -15 24 -15 27 0 36 4 37 18 0 13 2 14 6 2 4 -8 12 -21 20 -28
20 -20 6 -33 -33 -28 -20 3 -39 -1 -47 -8 -9 -9 -39 -13 -92 -11 -54 1 -87 -3
-102 -13 -12 -7 -27 -11 -33 -7 -5 3 -10 1 -10 -4 0 -6 -10 -11 -22 -11 -13 0
-40 -5 -60 -11 l-38 -10 0 -194 c0 -181 1 -194 18 -188 9 3 14 3 10 -2 -4 -4
-3 -14 4 -22 9 -11 7 -15 -10 -20 -25 -6 -29 -18 -9 -26 17 -6 42 -219 38
-317 -1 -36 1 -62 5 -58 12 12 44 -12 44 -33 0 -12 -10 -35 -22 -52 -20 -28
-23 -47 -26 -140 -2 -60 -1 -119 2 -131 3 -13 29 -46 57 -75 48 -49 52 -51 66
-34 13 17 14 17 8 -4 -3 -12 -1 -24 4 -28 7 -3 7 -13 2 -23 -5 -9 -14 -30 -20
-46 -10 -24 -16 -28 -41 -24 -29 4 -40 -5 -20 -17 17 -11 11 -35 -15 -61 -15
-15 -25 -36 -25 -54 0 -16 -5 -32 -10 -35 -6 -3 -10 -1 -10 5 0 6 -5 8 -10 5
-6 -3 -10 -1 -10 6 0 8 -4 8 -15 -1 -12 -10 -15 -40 -15 -146 l0 -134 2156 0
c2050 0 2156 1 2149 18 -32 77 -18 103 15 27 11 -25 21 -45 22 -45 2 0 -8 36
-22 80 -16 52 -29 78 -37 75 -11 -4 -29 39 -39 94 -1 7 -7 18 -13 24 -6 6 -11
19 -11 29 0 10 -7 29 -15 41 -8 13 -23 49 -34 82 -19 61 -30 83 -69 145 -12
19 -22 42 -22 50 0 22 -46 104 -75 136 -18 19 -22 31 -15 38 15 15 12 36 -4
36 -8 0 -18 9 -21 20 -3 11 -14 28 -23 37 -16 16 -16 16 1 10 9 -3 17 -3 17 1
0 16 -16 29 -42 36 -15 3 -33 16 -39 29 -15 27 -108 131 -123 136 -6 2 -22 12
-35 22 -13 11 -33 19 -43 19 -16 0 -82 25 -97 37 -2 1 -7 20 -10 40 -8 48 -41
60 -42 16 0 -26 -1 -27 -11 -7 -10 22 -83 64 -110 64 -9 0 -21 6 -27 14 -7 8
-23 17 -36 20 -14 4 -25 11 -25 16 0 6 -11 8 -24 4 -16 -4 -34 0 -48 10 -12 9
-32 16 -45 16 -12 0 -25 5 -29 11 -3 6 -15 9 -25 6 -11 -3 -19 -1 -19 5 0 5
-4 6 -10 3 -5 -3 -10 -15 -10 -27 0 -11 -16 -59 -35 -107 -27 -68 -35 -104
-38 -172 -5 -97 -16 -124 -79 -192 -63 -67 -91 -66 -157 11 -28 31 -64 84 -81
117 -17 33 -47 85 -68 114 -34 51 -44 58 -137 97 -55 23 -124 52 -153 65 l-53
23 -77 -28 c-205 -75 -372 -64 -415 26 -31 66 -50 180 -51 308 -1 69 2 136 6
150 6 21 4 26 -12 27 -11 1 -32 -5 -48 -13 -15 -7 -32 -14 -38 -14 -19 0 -83
-53 -126 -105 -23 -27 -38 -41 -33 -30 4 11 8 28 10 39 1 10 8 24 17 30 17 13
42 56 32 56 -4 0 -16 -7 -26 -16 -13 -13 -21 -14 -31 -5 -11 8 -23 7 -51 -4
-64 -27 -69 -10 -31 109 29 92 30 96 10 96 -8 0 -15 4 -15 8 0 13 79 8 123 -7
22 -7 53 -11 70 -8 18 3 26 3 20 1 -10 -4 -9 -10 4 -22 11 -12 18 -13 20 -5 3
7 11 9 19 6 10 -3 12 0 9 10 -5 11 0 13 21 9 20 -4 25 -2 19 8 -6 9 0 11 22 6
29 -7 30 -6 36 35 3 22 3 56 0 75 -3 18 -2 46 3 61 7 25 8 21 14 -30 9 -67 12
-72 37 -58 10 6 31 16 47 21 23 9 26 13 16 25 -7 8 -11 15 -9 16 2 0 13 2 24
3 11 2 32 7 48 11 42 11 33 -10 -18 -39 -28 -17 -45 -34 -45 -46 0 -10 -5 -22
-10 -25 -5 -3 -10 -11 -10 -17 0 -7 13 3 28 20 16 18 36 32 45 32 10 0 17 7
17 15 0 8 4 15 9 15 5 0 8 -33 8 -74 -2 -79 -10 -86 -26 -21 l-9 40 -1 -57
c-1 -59 -13 -80 -29 -52 -6 11 -5 27 1 45 14 36 7 43 -27 28 -19 -9 -26 -19
-24 -38 2 -29 -9 -54 -20 -47 -14 8 -38 -20 -50 -59 -22 -69 -27 -279 -8 -360
30 -128 44 -153 95 -177 67 -31 152 -28 271 11 130 42 131 43 89 77 -94 76
-175 173 -216 256 -24 47 -43 92 -43 100 0 9 -7 21 -15 28 -8 7 -15 21 -15 31
0 11 -7 19 -15 19 -8 0 -15 5 -15 11 0 6 10 9 23 7 16 -2 26 -15 37 -48 8 -25
30 -70 48 -101 17 -31 32 -59 32 -63 0 -18 81 -112 169 -197 113 -110 128
-120 266 -170 67 -25 129 -26 287 -8 l96 11 22 49 c16 39 21 70 21 144 0 70 3
95 12 95 7 0 25 6 40 13 29 13 36 46 15 69 -19 21 -38 56 -38 71 0 8 -9 22
-20 32 -20 18 -20 17 -14 -36 11 -99 12 -107 18 -118 4 -5 3 -12 -2 -15 -5 -3
-17 20 -27 50 -10 30 -23 58 -29 61 -6 4 -7 -1 -2 -12 4 -11 10 -38 13 -62 7
-54 -13 -59 -23 -5 -8 44 -22 73 -42 88 -13 9 -14 24 -6 92 9 73 8 80 -7 71
-9 -4 -20 -16 -24 -26 -6 -16 -8 -15 -16 6 -8 21 -3 31 51 85 33 34 68 72 77
86 9 14 20 27 23 30 15 12 70 147 70 171 0 10 9 33 19 50 11 17 17 37 15 43
-3 7 4 21 16 31 11 10 20 24 20 30 0 7 18 47 40 90 44 86 53 145 21 145 -15 0
-19 -10 -24 -54 -6 -57 -48 -155 -79 -182 -24 -23 -23 -3 2 26 11 12 22 38 26
56 3 19 10 36 14 39 5 3 11 24 15 48 4 23 11 50 16 59 6 11 5 19 -3 24 -15 10
-60 10 -75 1 -10 -6 -95 -3 -220 7 -18 2 -41 10 -51 19 -10 10 -24 17 -30 17
-20 0 -39 53 -37 103 2 26 5 50 8 53 3 3 3 12 0 20 -3 8 2 17 11 20 12 4 13
11 6 24 -7 13 -6 20 3 23 9 4 9 7 -1 14 -20 15 41 53 84 53 29 0 35 -3 30 -16
-6 -15 -4 -15 20 1 21 14 28 14 34 4 7 -10 12 -10 23 0 10 8 17 9 22 2 3 -6
26 -9 50 -6 25 2 45 0 45 -4 0 -4 17 -7 38 -7 20 0 48 -1 62 -2 42 -3 76 0 63
5 -7 2 -9 11 -6 19 3 8 -1 14 -11 14 -9 0 -16 5 -16 10 0 16 15 12 35 -10 14
-16 20 -17 27 -8 5 9 8 3 8 -14 0 -20 5 -28 18 -29 14 0 14 -2 -3 -9 -11 -4
-33 -6 -50 -4 -16 2 -23 1 -15 -2 32 -14 42 -27 28 -36 -10 -8 -10 -11 0 -15
6 -2 10 -9 6 -14 -10 -17 -16 -54 -19 -116 -2 -34 -6 -67 -10 -73 -3 -5 1 -13
9 -16 9 -3 16 -13 16 -21 0 -12 -3 -13 -13 -4 -8 6 -17 8 -20 4 -12 -11 -7
-21 13 -26 11 -3 20 -2 20 3 0 4 14 13 31 21 22 9 38 26 51 56 10 24 22 43 26
43 12 0 31 51 25 68 -8 21 -34 52 -44 52 -4 0 -10 -19 -12 -42 -3 -43 -4 -43
-5 8 -1 28 3 55 10 62 9 9 9 15 0 24 -17 17 -15 48 3 48 8 0 15 5 15 10 0 6 4
10 10 10 5 0 9 -10 7 -21 -1 -12 4 -24 11 -26 16 -6 16 39 0 55 -7 7 -9 12 -5
12 14 0 -23 72 -68 129 -50 66 -59 93 -18 62 14 -12 28 -19 30 -17 6 6 -38 66
-48 66 -14 0 -169 183 -169 200 0 14 9 9 39 -19 55 -50 108 -82 150 -87 27 -3
33 -2 24 7 -6 6 -9 17 -6 25 2 7 -7 28 -21 47 -23 29 -54 99 -60 134 -1 7 -15
26 -30 42 l-29 30 34 9 34 10 -39 1 c-26 1 -48 9 -63 23 -16 15 -23 17 -23 7
0 -35 14 -59 39 -68 14 -5 20 -10 13 -10 -18 -1 -6 -39 21 -68 15 -17 17 -23
6 -23 -8 -1 -3 -9 13 -21 29 -21 74 -87 65 -95 -2 -3 -12 3 -22 12 -11 12 -19
14 -24 6 -4 -8 -11 -8 -21 -1 -11 8 -12 12 -2 16 17 7 15 30 -4 37 -22 8 -26
8 -19 -4 8 -13 2 -13 -30 2 -28 12 -35 34 -8 24 10 -4 14 -3 9 1 -11 11 -50
10 -58 -2 -4 -5 -10 -6 -14 -3 -10 11 19 35 36 30 15 -5 -18 38 -49 65 -28 25
-4 22 33 -3 21 -14 40 -23 43 -20 11 11 -30 46 -52 46 -13 0 -28 7 -35 15 -10
12 -10 15 1 15 10 0 10 3 1 12 -17 17 -15 31 3 24 24 -9 17 8 -8 20 -12 6 -44
23 -71 38 -69 38 -68 25 1 -18 83 -52 33 -48 -57 4 -38 22 -91 46 -119 53 -40
10 -48 16 -39 25 15 15 3 15 -24 1 -17 -9 -18 -13 -7 -20 9 -5 10 -9 2 -9 -24
0 1 -41 41 -65 22 -14 36 -25 30 -25 -15 0 -72 29 -79 41 -4 5 -14 9 -23 9
-10 0 -24 16 -34 40 -19 46 -3 57 26 18 9 -13 14 -18 11 -11 -3 6 2 19 11 28
9 9 15 17 13 18 -2 2 -17 9 -33 15 -47 21 -21 26 36 7 29 -10 63 -22 75 -28
12 -5 34 -7 49 -4 19 3 40 -3 66 -19 61 -38 146 -74 150 -62 4 11 58 -12 88
-37 24 -20 75 -26 212 -25 160 2 168 -2 168 -79 l0 -58 -89 -61 c-49 -34 -95
-62 -101 -62 -7 0 -10 -7 -6 -16 3 -9 6 -17 6 -20 0 -8 72 -34 80 -29 5 3 7
-8 5 -25 -6 -42 11 -38 19 5 4 21 11 33 17 29 6 -3 9 -17 6 -30 -3 -15 0 -24
9 -24 13 0 13 37 0 58 -4 7 -4 17 -1 22 12 20 35 -11 35 -46 0 -33 1 -34 41
-34 71 0 99 -29 61 -63 -13 -12 -37 -17 -80 -17 -56 0 -62 -2 -59 -20 2 -11 6
-23 10 -26 4 -4 2 -13 -4 -20 -6 -8 -9 -20 -6 -28 3 -7 0 -19 -6 -25 -6 -6 -8
-13 -5 -17 10 -9 33 9 33 26 0 11 14 16 52 18 41 2 56 8 68 25 14 20 15 16 15
-56 0 -81 -11 -107 -44 -107 -9 0 -16 -7 -16 -15 0 -8 5 -15 11 -15 7 0 8 -12
4 -32 -8 -37 -25 -61 -25 -36 0 20 -78 42 -97 26 -20 -17 -4 -30 34 -26 22 2
39 -3 47 -12 6 -8 20 -20 31 -26 11 -6 23 -26 27 -45 4 -19 10 -46 14 -61 l6
-28 98 0 c53 0 118 3 144 6 l46 7 0 543 0 544 22 0 c20 0 21 -1 4 -13 -16 -12
-17 -34 -12 -312 3 -165 5 -363 6 -440 l0 -141 38 -1 c38 -2 114 -33 80 -33
-10 0 -18 -4 -18 -10 0 -16 -60 -12 -66 5 -9 23 -34 18 -34 -7 1 -17 13 -29
48 -46 26 -12 60 -22 76 -22 16 0 38 -7 48 -17 26 -23 22 -2 -5 27 -13 14 -26
33 -30 43 -11 30 23 19 60 -19 25 -27 32 -42 27 -58 -9 -29 -9 -29 -49 -28
-41 2 -58 9 -50 23 4 5 -10 9 -30 9 -20 0 -47 7 -60 16 -24 16 -25 16 -25 -9
0 -39 34 -57 106 -57 34 0 69 -3 78 -6 21 -8 21 -44 0 -44 -11 0 -14 -6 -9
-20 4 -13 1 -22 -9 -26 -9 -3 -16 -15 -16 -26 0 -19 -4 -20 -63 -14 -50 6 -66
4 -76 -7 -7 -9 -12 -58 -14 -130 l-2 -116 -25 6 c-14 3 -35 12 -47 19 -12 8
-34 14 -48 14 -15 0 -36 11 -50 26 -21 22 -27 25 -40 14 -11 -9 -33 -11 -74
-7 -52 6 -60 4 -80 -16 -11 -13 -21 -31 -21 -40 0 -9 -15 -30 -32 -46 -25 -24
-42 -31 -72 -31 -22 0 -55 -5 -73 -12 -27 -10 -38 -10 -55 1 -20 12 -24 11
-42 -11 -14 -17 -29 -24 -46 -22 -52 6 -106 -37 -88 -70 8 -15 6 -23 -13 -37
-21 -16 -22 -21 -11 -39 16 -27 1 -50 -33 -50 -12 0 -30 -9 -40 -20 -21 -24
-42 -25 -65 -5 -14 13 -19 10 -45 -23 l-30 -37 28 18 c15 9 27 13 27 8 0 -5
-4 -13 -10 -16 -16 -10 -11 -25 13 -36 25 -11 60 -60 96 -134 13 -27 32 -61
42 -74 11 -13 24 -41 29 -62 6 -22 16 -39 21 -39 6 0 24 -9 41 -21 16 -12 30
-20 32 -18 18 25 63 98 69 112 3 9 12 17 18 17 8 0 7 -5 -2 -17 -13 -15 -11
-16 11 -10 14 4 44 7 68 7 24 0 41 3 39 8 -6 9 86 8 141 -2 29 -5 47 -4 57 4
11 9 15 9 15 1 0 -6 4 -11 9 -11 5 0 8 8 7 17 -1 12 7 19 24 21 39 4 72 23
110 63 l35 37 80 -13 c106 -18 116 -18 75 5 -19 11 -47 19 -62 20 -16 0 -28 4
-28 8 0 13 82 7 110 -8 34 -17 70 -51 70 -65 0 -7 -9 -20 -20 -30 -18 -17 -20
-17 -20 -1 0 24 -73 54 -140 57 -50 3 -55 1 -58 -19 -2 -12 -11 -23 -20 -24
-9 0 -23 -2 -29 -2 -20 -2 -46 -33 -38 -45 3 -6 11 -9 16 -5 11 7 76 -14 84
-26 7 -11 -91 -3 -114 10 -19 10 -51 -5 -51 -23 0 -13 -57 -16 -77 -4 -12 8
-43 -1 -43 -12 0 -4 5 -12 12 -19 9 -9 9 -12 0 -12 -6 0 -18 14 -27 30 -18 34
-26 36 -60 14 -18 -12 -25 -13 -25 -4 0 9 -3 10 -13 2 -8 -7 -29 -9 -49 -6
-52 9 -105 -12 -124 -48 -20 -38 -11 -62 20 -56 15 3 23 1 20 -6 -3 -7 17 -18
45 -27 32 -10 52 -12 54 -5 2 5 11 7 21 3 12 -5 15 -13 11 -26 -4 -12 0 -21
11 -25 9 -4 18 -5 18 -4 1 2 7 14 14 28 11 24 12 23 6 -9 -4 -23 -3 -31 5 -27
6 4 11 16 11 26 0 10 4 21 8 24 4 2 6 -11 4 -30 -4 -31 -1 -35 30 -49 19 -7
43 -13 54 -11 10 2 13 1 7 -1 -16 -5 -16 -9 -3 -33 21 -40 47 -43 88 -12 20
16 54 41 74 56 21 15 38 35 39 44 0 10 21 27 52 43 52 27 63 45 26 43 -13 0
-16 3 -10 9 7 7 18 6 35 -2 20 -11 27 -10 48 3 15 10 52 18 90 19 44 2 77 10
102 25 35 21 63 22 156 9 54 -8 61 7 30 75 -20 46 -70 98 -94 98 -8 0 -18 -19
-25 -45 -10 -41 -62 -115 -81 -115 -18 0 -5 40 17 51 16 8 29 30 39 65 8 29
23 63 33 76 9 13 26 61 36 106 15 68 16 87 6 104 -11 17 -9 20 9 25 19 5 21
10 15 37 -4 17 -8 39 -8 49 -2 22 -6 22 -23 -1 -13 -16 -13 -16 -14 1 0 9 -4
17 -10 17 -5 0 -10 9 -10 20 0 13 -5 18 -15 14 -8 -4 -22 -1 -30 6 -22 18 -18
32 4 18 16 -10 31 -8 83 10 35 12 68 22 74 22 6 0 14 -18 18 -39 3 -22 10 -43
16 -46 5 -3 39 -8 75 -12 l65 -6 0 280 c0 228 -3 288 -16 326 -17 51 -16 103
4 100 8 -2 12 15 12 60 l0 62 -37 1 c-21 1 -69 5 -106 9 -63 7 -68 9 -63 29 3
12 6 29 6 40 0 13 5 17 19 13 16 -4 18 -1 14 17 -10 46 -12 96 -3 96 6 0 9 -3
9 -7 -4 -22 2 -43 12 -43 5 0 8 4 4 9 -3 5 -1 12 4 15 17 11 22 -12 5 -28 -13
-14 -13 -16 0 -16 9 0 16 -11 18 -27 2 -19 8 -27 18 -24 8 2 34 3 58 3 l42 0
0 110 0 110 -37 -7 c-27 -4 -44 -1 -58 10 -19 14 -19 16 -2 26 9 5 17 19 17
29 0 16 7 20 33 19 l32 -1 -30 -8 -30 -8 30 -1 c21 -1 26 -4 17 -10 -10 -6 -9
-10 7 -14 l21 -5 0 614 0 614 -2245 0 c-1235 0 -2245 -4 -2245 -8z m118 -324
c-4 -29 -38 -38 -38 -10 0 22 8 32 27 32 9 0 13 -8 11 -22z m382 -143 c11 -13
10 -14 -4 -9 -9 3 -16 10 -16 15 0 13 6 11 20 -6z m115 -63 c6 -16 -45 19 -66
44 -9 11 -1 9 23 -7 21 -13 40 -30 43 -37z m-70 28 c3 -5 1 -10 -4 -10 -6 0
-11 5 -11 10 0 6 2 10 4 10 3 0 8 -4 11 -10z m149 -85 c41 -35 28 -40 -14 -4
-19 15 -30 29 -25 29 6 0 23 -11 39 -25z m2711 -35 l-160 -6 110 -4 110 -4
-120 -6 c-66 -4 -186 -8 -267 -9 -92 0 -148 -5 -148 -11 0 -6 15 -8 39 -4 30
5 39 3 44 -10 7 -17 -8 -23 -17 -7 -3 5 -15 7 -25 4 -11 -3 -36 0 -57 7 -30
10 -38 10 -46 -1 -7 -11 -11 -11 -15 -1 -3 8 -31 13 -81 14 l-77 2 75 6 75 6
-97 2 c-56 1 -99 -2 -103 -8 -9 -15 -32 -12 -32 4 0 17 53 20 332 24 93 2 171
5 174 7 2 3 104 4 225 3 l221 -2 -160 -6z m-298 -46 c-3 -3 -12 -4 -19 -1 -8
3 -5 6 6 6 11 1 17 -2 13 -5z m-2780 -36 c-3 -7 -5 -2 -5 12 0 14 2 19 5 13 2
-7 2 -19 0 -25z m2274 9 c-1 -12 -15 -9 -19 4 -3 6 1 10 8 8 6 -3 11 -8 11
-12z m-788 -4 c3 -5 -23 -7 -56 -5 -104 5 -116 9 -30 11 45 0 84 -2 86 -6z
m176 3 c-2 -2 -33 -6 -69 -9 -38 -3 -57 -1 -45 3 19 8 123 14 114 6z m89 -3
c-10 -2 -26 -2 -35 0 -10 3 -2 5 17 5 19 0 27 -2 18 -5z m-1308 -13 c0 -5 -4
-10 -10 -10 -5 0 -10 5 -10 10 0 6 5 10 10 10 6 0 10 -4 10 -10z m278 3 c-10
-2 -28 -2 -40 0 -13 2 -5 4 17 4 22 1 32 -1 23 -4z m200 0 c-16 -2 -40 -2 -55
0 -16 2 -3 4 27 4 30 0 43 -2 28 -4z m90 0 c-10 -2 -28 -2 -40 0 -13 2 -5 4
17 4 22 1 32 -1 23 -4z m70 0 c-10 -2 -26 -2 -35 0 -10 3 -2 5 17 5 19 0 27
-2 18 -5z m2107 -3 c-87 -12 -621 -24 -612 -15 6 7 376 21 592 22 l80 0 -60
-7z m-3288 -252 c-1 -40 -3 -8 -3 72 0 80 2 112 3 73 2 -40 2 -106 0 -145z
m-20 -10 c-1 -40 -3 -10 -3 67 0 77 1 110 3 73 2 -37 2 -100 0 -140z m2358
192 c3 -5 2 -10 -4 -10 -5 0 -13 5 -16 10 -3 6 -2 10 4 10 5 0 13 -4 16 -10z
m-1110 -20 c3 -5 1 -10 -4 -10 -6 0 -11 5 -11 10 0 6 2 10 4 10 3 0 8 -4 11
-10z m1175 -15 c13 -16 3 -20 -24 -9 -9 3 -13 10 -10 15 8 13 20 11 34 -6z
m-1410 -4 c0 -5 -9 -7 -20 -4 -11 3 -20 7 -20 9 0 2 9 4 20 4 11 0 20 -4 20
-9z m1681 -31 c24 -11 40 -20 34 -20 -14 0 -83 25 -91 33 -13 13 14 7 57 -13z
m-331 -10 c12 -8 11 -10 -7 -10 -13 0 -23 5 -23 10 0 13 11 13 30 0z m75 -10
c3 -5 -1 -10 -10 -10 -9 0 -13 5 -10 10 3 6 8 10 10 10 2 0 7 -4 10 -10z m191
-18 c-4 -3 -14 2 -24 12 -16 18 -16 18 6 6 13 -6 21 -14 18 -18z m84 -8 c0 -2
-7 -4 -15 -4 -8 0 -15 4 -15 10 0 5 7 7 15 4 8 -4 15 -8 15 -10z m72 9 c-10
-4 -9 -8 5 -19 12 -9 13 -13 5 -14 -7 0 -10 -5 -6 -11 4 -7 -2 -7 -17 1 -19
11 -24 10 -35 -4 -8 -11 -14 -13 -19 -7 -3 6 1 14 9 17 9 3 13 10 10 15 -3 5
2 6 10 3 11 -4 16 0 16 10 0 9 8 16 18 15 11 0 12 -2 4 -6z m-281 -15 c18 -11
23 -10 26 0 4 9 15 5 40 -14 31 -24 34 -24 24 -5 -14 25 -5 27 21 4 11 -9 18
-11 18 -5 0 7 7 12 15 12 8 0 15 5 15 12 0 6 9 3 20 -7 24 -22 26 -37 3 -28
-14 5 -13 1 6 -25 24 -35 41 -41 41 -16 0 14 1 14 16 0 10 -10 13 -24 9 -37
-6 -18 -4 -21 9 -16 9 4 23 10 31 13 9 4 15 3 14 -2 -4 -24 3 -46 21 -64 11
-11 18 -20 16 -20 -9 0 26 -74 42 -94 16 -18 16 -18 -4 -8 -11 6 -38 32 -60
59 -21 26 -33 44 -26 39 6 -4 12 -2 12 3 0 6 -18 22 -40 36 -23 14 -39 31 -38
38 2 7 0 12 -3 12 -3 0 -13 6 -22 14 -24 20 -21 0 6 -31 12 -14 31 -39 42 -55
11 -15 40 -49 64 -75 24 -27 40 -48 36 -48 -4 0 -20 14 -36 31 -26 27 -30 29
-44 16 -11 -12 -12 -16 -2 -20 6 -2 9 -8 5 -12 -14 -15 -138 132 -138 163 0 5
-7 17 -16 28 -13 16 -15 16 -10 2 3 -10 2 -27 -2 -39 -10 -25 -23 -12 -41 40
-8 26 -8 37 0 45 9 8 10 8 5 -1 -8 -15 0 -18 9 -3 7 11 -42 33 -55 25 -4 -2 3
-34 16 -70 26 -72 29 -89 14 -80 -16 10 -50 91 -50 119 0 16 -11 34 -32 50
-25 19 -28 26 -15 26 9 0 27 -6 38 -12z m-2561 -18 c12 -22 5 -60 -10 -60 -16
0 -41 33 -36 47 3 8 6 19 6 24 0 17 29 9 40 -11z m4268 -110 c3 -9 -2 -11 -17
-7 -16 4 -21 1 -21 -14 0 -20 7 -22 55 -19 26 2 27 0 16 -14 -16 -19 -61 -21
-83 -3 -16 12 -32 71 -17 61 5 -3 17 0 26 5 22 12 35 9 41 -9z m-1568 -72 c0
-6 -7 -5 -15 2 -8 7 -15 17 -15 22 0 6 7 5 15 -2 8 -7 15 -17 15 -22z m-849
-27 c-14 -25 -71 -66 -71 -51 0 16 74 93 78 81 2 -5 -1 -19 -7 -30z m-1703
-19 c3 -36 0 -42 -16 -42 -20 0 -32 18 -32 48 0 11 7 7 20 -13 l20 -30 0 28
c0 15 -7 30 -15 33 -21 8 -19 26 3 22 12 -2 18 -15 20 -46z m4027 18 c-4 -6
-24 -18 -46 -26 -21 -9 -37 -20 -34 -24 3 -5 -1 -11 -7 -13 -7 -3 -3 -6 10 -6
33 -1 27 -21 -7 -21 -61 0 -44 36 34 74 59 29 58 29 50 16z m25 -15 c0 -7 -58
-35 -72 -35 -7 1 3 9 22 19 37 20 50 24 50 16z m-377 -55 c14 -17 14 -20 2
-20 -8 0 -15 5 -15 10 0 6 -4 10 -9 10 -13 0 -20 -39 -8 -43 6 -2 1 -6 -11 -9
-24 -7 -24 -9 -12 70 1 10 39 -2 53 -18z m-896 -37 c23 -18 45 -42 48 -53 8
-24 25 -27 25 -4 0 19 16 10 32 -19 10 -19 9 -20 -4 -9 -14 11 -16 9 -14 -11
0 -16 12 -31 30 -41 27 -16 28 -16 15 0 -12 14 -11 16 6 13 12 -3 21 -14 23
-27 3 -17 -1 -22 -20 -22 -29 0 -77 49 -101 103 -9 20 -21 37 -26 37 -14 0
-81 60 -81 72 0 12 14 3 67 -39z m79 -20 c-7 -7 -26 7 -26 19 0 6 6 6 15 -2 9
-7 13 -15 11 -17z m788 -60 c-1 -27 -2 -65 -3 -85 -2 -72 -16 -38 -19 47 -2
65 0 85 10 85 10 0 13 -14 12 -47z m416 37 c0 -5 -2 -10 -4 -10 -3 0 -8 5 -11
10 -3 6 -1 10 4 10 6 0 11 -4 11 -10z m-2480 -19 c-5 -11 -15 -23 -20 -26 -17
-10 -11 -32 10 -38 23 -6 27 -39 6 -56 -14 -12 -46 -5 -57 12 -11 16 21 96 44
112 28 19 30 19 17 -4z m2475 -9 c-7 -8 -35 7 -35 18 0 6 7 6 20 -2 10 -7 17
-14 15 -16z m-2459 -50 c-10 -10 -29 15 -21 28 6 9 10 8 17 -4 6 -10 7 -20 4
-24z m2168 -22 c-7 -6 -24 22 -23 40 0 9 6 5 14 -10 7 -14 11 -27 9 -30z
m-2238 -77 c-6 -15 -4 -15 14 2 20 18 20 18 20 -3 0 -11 -4 -24 -10 -27 -5 -3
-10 -17 -10 -30 0 -30 -14 -39 -40 -25 -24 13 -26 47 -4 78 18 26 39 30 30 5z
m306 -7 c26 -1 50 -5 54 -8 3 -4 12 -4 19 -2 7 3 24 -1 37 -9 13 -8 37 -17 53
-20 17 -4 24 -4 18 -1 -20 9 -15 24 8 24 15 0 19 -5 15 -15 -3 -8 -1 -15 3
-15 5 0 12 7 15 15 4 12 10 13 24 6 10 -6 28 -7 40 -4 14 3 22 1 22 -7 0 -9 4
-9 13 -2 6 5 27 7 46 5 23 -4 29 -8 20 -14 -10 -6 -8 -9 9 -10 12 -1 28 -2 35
-3 17 -1 32 -27 19 -35 -5 -3 -9 -31 -7 -61 2 -30 -1 -60 -6 -67 -7 -7 -6 -14
1 -18 18 -11 11 -35 -10 -35 -11 0 -20 -4 -20 -10 0 -5 5 -10 11 -10 5 0 8 -4
4 -10 -3 -5 -13 -6 -21 -3 -11 4 -15 1 -12 -11 4 -24 -49 -57 -61 -37 -7 10
-13 11 -31 1 -30 -16 -254 -1 -310 20 -14 6 -36 11 -49 13 -29 4 -39 24 -17
33 14 5 14 8 -1 22 -10 11 -12 17 -4 20 6 2 9 8 5 13 -7 12 5 51 14 45 4 -2 7
7 7 20 0 13 -3 24 -6 24 -4 0 -6 24 -5 54 0 30 4 52 7 50 4 -2 9 3 13 11 5 15
-24 21 -76 17 -10 -1 -18 2 -18 7 0 13 29 19 65 14 17 -2 51 -5 77 -7z m1799
1 c-1 -12 -15 -9 -19 4 -3 6 1 10 8 8 6 -3 11 -8 11 -12z m-2184 -20 c3 -4
-18 -8 -48 -8 -30 -1 -46 -3 -36 -6 31 -8 18 -23 -20 -23 -28 0 -34 3 -23 10
10 6 -47 10 -169 10 -101 0 -181 3 -177 7 4 5 101 10 214 13 234 6 249 6 259
-3z m-644 -14 c-7 -2 -21 -2 -30 0 -10 3 -4 5 12 5 17 0 24 -2 18 -5z m2043
-31 c-4 -3 -14 2 -24 12 -16 18 -16 18 6 6 13 -6 21 -14 18 -18z m-1591 8
c-27 -12 -104 -12 -86 -1 7 5 34 9 60 9 34 0 41 -2 26 -8z m212 -4 c-4 -9 2
-17 13 -21 25 -8 38 -54 19 -65 -11 -7 -10 -12 3 -27 10 -11 15 -29 12 -48
l-5 -30 17 23 c23 31 35 27 22 -9 -7 -21 -15 -28 -25 -24 -22 8 -43 -13 -43
-42 0 -20 4 -24 23 -21 29 3 97 -57 97 -87 0 -32 -11 -65 -22 -65 -6 0 -8 10
-4 23 5 21 3 23 -29 19 -32 -4 -33 -6 -23 -28 11 -23 20 -28 46 -25 6 1 12 -8
12 -21 1 -20 2 -21 11 -5 16 27 36 20 41 -14 4 -25 1 -33 -14 -37 -10 -2 -18
-13 -18 -23 0 -22 -3 -22 -48 -9 -27 7 -41 5 -68 -9 -18 -10 -31 -21 -27 -25
3 -3 -3 -6 -15 -6 -12 0 -22 -3 -22 -6 0 -12 26 -30 40 -27 8 2 4 -2 -10 -9
-14 -6 -27 -13 -29 -15 -5 -3 53 -93 60 -93 3 0 21 -21 39 -46 18 -26 28 -45
22 -43 -28 10 -112 104 -137 153 -26 52 -27 56 -14 98 13 40 17 43 52 46 29 3
37 7 37 23 0 16 -7 19 -39 19 -22 0 -42 4 -45 9 -8 12 14 71 25 71 5 0 9 4 9
9 0 15 -36 23 -74 15 -34 -6 -36 -9 -42 -55 l-7 -49 -44 0 c-42 0 -45 1 -38
23 4 12 9 35 12 50 l6 29 -184 -3 -184 -3 -8 59 c-4 33 -6 96 -5 140 l3 80
120 2 c74 1 110 -2 95 -7 -14 -4 -62 -8 -107 -9 l-82 -1 -6 -32 c-3 -18 -3
-51 -1 -73 3 -22 5 -61 5 -87 1 -46 2 -48 31 -48 24 0 28 3 23 18 -3 9 -13 25
-21 35 -20 23 -7 35 16 13 21 -18 52 -12 52 10 0 10 -12 14 -40 14 -35 0 -40
3 -40 23 0 30 29 46 102 58 34 6 70 16 82 24 22 16 76 20 76 6 0 -5 11 -8 25
-8 14 0 28 3 31 8 3 5 14 9 25 9 17 0 18 3 9 20 -9 17 -22 20 -83 21 l-72 1
67 12 c37 6 73 17 80 24 11 11 -39 12 -299 6 -232 -5 -313 -4 -313 5 0 7 24
11 68 12 137 2 478 18 521 25 36 5 47 3 58 -12 18 -25 16 -61 -3 -68 -14 -6
-13 -9 7 -27 66 -58 90 -60 127 -10 21 29 21 30 2 36 -25 8 -29 65 -5 65 8 0
15 5 15 10 0 6 -12 10 -27 10 -35 0 -18 17 22 23 17 2 34 5 39 6 4 0 6 -6 3
-13z m2183 -13 c0 -9 6 -13 15 -9 8 3 15 1 15 -4 0 -14 -24 -12 -38 2 -14 14
-16 42 -2 33 6 -3 10 -13 10 -22z m260 -18 c8 -18 14 -54 26 -144 3 -21 -1
-40 -10 -50 -15 -17 -26 -113 -31 -268 -1 -58 -7 -99 -15 -109 -26 -30 -31 12
-24 178 4 90 8 188 9 218 1 46 15 177 21 203 5 20 6 21 11 7 2 -8 8 -24 13
-35z m-2208 -22 c-2 -63 -11 -103 -23 -103 -10 0 -2 135 8 153 10 17 16 -5 15
-50z m2391 -37 c46 -35 1 -76 -67 -59 l-31 7 39 6 c22 3 42 11 44 19 3 10 -1
12 -17 8 -23 -6 -27 3 -9 21 15 15 19 15 41 -2z m-3803 -56 c24 -8 23 -8 -7
-9 -29 -1 -33 -4 -34 -28 0 -25 -1 -26 -9 -8 -22 51 -8 64 50 45z m120 -25
l25 -15 -25 4 c-14 3 -28 5 -32 5 -5 1 -8 6 -8 11 0 13 10 12 40 -5z m1304
-58 c10 -15 16 -31 12 -34 -3 -4 -13 3 -22 15 -8 12 -19 20 -23 17 -10 -5 -12
45 -3 60 3 5 9 1 12 -10 3 -11 13 -33 24 -48z m-1616 14 c3 -10 0 -12 -11 -8
-14 5 -16 0 -10 -38 4 -31 2 -45 -6 -45 -6 0 -11 11 -11 24 0 13 -3 37 -6 53
-5 27 -3 30 17 29 12 0 24 -7 27 -15z m329 -18 c-3 -10 -5 -4 -5 12 0 17 2 24
5 18 2 -7 2 -21 0 -30z m1963 27 c0 -5 -4 -10 -10 -10 -5 0 -10 5 -10 10 0 6
5 10 10 10 6 0 10 -4 10 -10z m1630 -11 c0 -5 4 -8 9 -5 5 4 11 -23 13 -60 1
-36 0 -68 -4 -71 -16 -9 -7 -25 11 -20 14 3 20 -1 23 -17 6 -35 -2 -55 -20
-50 -15 5 -15 4 1 -6 23 -15 26 -140 2 -140 -8 0 -18 -1 -22 -2 -16 -6 -22 70
-11 129 10 54 9 65 -4 80 -8 10 -21 42 -28 71 -10 44 -10 58 0 78 14 25 30 32
30 13z m-2490 -3 c0 -3 -4 -8 -10 -11 -5 -3 -10 -1 -10 4 0 6 5 11 10 11 6 0
10 -2 10 -4z m-1341 -72 c25 -5 31 -11 29 -28 -2 -14 -9 -20 -23 -19 -11 1
-37 3 -57 4 -41 3 -42 19 0 19 29 0 20 15 -13 23 -32 8 26 8 64 1z m1550 -64
c13 -62 14 -83 2 -76 -5 3 -12 27 -16 52 -3 26 -9 53 -12 60 -3 8 -1 14 5 14
6 0 15 -23 21 -50z m-1650 -8 c1 -7 -3 -10 -9 -7 -5 3 -10 18 -9 33 0 24 1 25
9 7 5 -11 9 -26 9 -33z m2356 28 c3 -5 1 -10 -4 -10 -6 0 -11 5 -11 10 0 6 2
10 4 10 3 0 8 -4 11 -10z m-2253 -90 c1 -44 2 -90 2 -102 1 -18 -5 -23 -24
-23 -22 0 -25 5 -26 35 -1 19 -5 65 -9 103 l-8 67 32 0 31 0 2 -80z m3572 -25
c8 -22 -11 -27 -64 -16 -32 6 -38 10 -20 11 19 2 15 5 -15 10 -36 6 -33 7 26
9 52 1 68 -2 73 -14z m-1546 -48 c24 -15 12 -25 -17 -14 -17 6 -28 14 -25 18
5 9 24 7 42 -4z m-1858 -1 c0 -2 -11 -6 -25 -8 -13 -3 -22 -1 -19 3 5 9 44 13
44 5z m40 -16 c0 -5 -7 -10 -15 -10 -8 0 -15 5 -15 10 0 6 7 10 15 10 8 0 15
-4 15 -10z m-103 -32 c-3 -7 -5 -2 -5 12 0 14 2 19 5 13 2 -7 2 -19 0 -25z
m2118 21 c10 -15 2 -19 -23 -12 -12 3 -19 9 -16 14 7 12 31 11 39 -2z m-2050
-68 c-4 -17 -10 -31 -14 -31 -4 0 -13 -10 -19 -22 -6 -13 -11 -17 -11 -10 -1
7 4 22 9 33 7 13 7 19 0 19 -5 0 -10 8 -9 18 0 10 3 12 6 5 7 -20 20 -15 26 9
9 33 20 14 12 -21z m960 18 c4 -6 4 -30 0 -55 l-6 -44 -45 0 -45 0 7 48 c3 26
8 50 11 55 6 11 71 8 78 -4z m270 -9 c-21 -8 -35 -4 -35 9 0 5 12 6 27 3 24
-5 25 -6 8 -12z m-31 -40 c20 0 36 -4 36 -10 0 -5 -7 -10 -15 -10 -8 0 -15 -6
-16 -12 0 -10 -2 -10 -5 -1 -3 7 -21 17 -40 23 -19 6 -34 16 -34 21 0 6 8 6
19 -1 11 -5 36 -10 55 -10z m2496 10 c0 13 2 13 9 0 12 -17 5 -30 -15 -30 -8
0 -14 10 -14 23 0 18 2 19 10 7 9 -13 10 -13 10 0z m-1500 -70 c18 -25 19 -30
6 -30 -9 0 -16 6 -16 14 0 7 -7 19 -15 26 -16 14 -21 35 -5 25 5 -3 19 -19 30
-35z m1523 0 c3 -10 -1 -26 -7 -35 -11 -15 -13 -15 -25 -1 -15 18 -6 56 14 56
7 0 15 -9 18 -20z m-2521 -27 c7 -27 14 -33 36 -33 27 -1 27 -1 4 -13 -20 -12
-21 -15 -7 -32 27 -36 16 -51 -13 -19 -16 17 -33 33 -40 35 -6 2 -14 21 -16
42 -3 21 -8 42 -12 48 -4 7 3 9 17 7 16 -2 25 -12 31 -35z m2207 6 l46 -32 46
17 c26 9 56 16 67 16 11 0 22 7 26 15 7 20 18 19 44 -4 25 -21 29 -51 8 -51
-19 0 -30 17 -14 22 6 2 9 9 5 15 -7 11 -131 -27 -151 -47 -17 -17 -43 -12
-75 16 -17 14 -46 28 -66 31 -33 5 -35 4 -35 -21 0 -31 -26 -86 -40 -86 -13 0
-13 1 5 43 9 21 12 48 9 66 -6 31 -6 31 36 31 31 0 55 -8 89 -31z m-2023 -136
c17 -38 18 -56 3 -51 -17 6 -42 76 -34 96 6 14 8 14 12 2 3 -8 11 -29 19 -47z
m714 47 c13 -9 13 -10 0 -10 -8 0 -22 5 -30 10 -13 9 -13 10 0 10 8 0 22 -5
30 -10z m1177 -62 c-8 -12 -25 -63 -37 -113 -12 -49 -26 -92 -30 -95 -16 -11
-40 -70 -34 -84 4 -11 1 -16 -10 -16 -17 0 -23 44 -7 54 11 7 56 136 71 204 8
32 20 58 33 67 27 19 32 13 14 -17z m-3256 -112 c13 8 10 -8 -5 -29 -13 -16
-14 -16 -19 5 -6 23 4 51 11 30 2 -7 8 -10 13 -6z m684 5 l-20 -8 20 -5 c17
-4 16 -6 -8 -13 -32 -9 -42 -3 -34 20 4 9 18 15 34 14 24 0 25 -1 8 -8z m-741
-73 c-6 -9 -9 -9 -12 0 -2 7 -9 12 -16 12 -7 0 -21 10 -32 21 l-19 22 43 -22
c27 -14 40 -26 36 -33z m24 40 c-2 -5 -8 -9 -13 -9 -5 0 -11 4 -13 9 -1 5 4 9
13 9 9 0 14 -4 13 -9z m323 -33 c19 -8 27 -14 19 -14 -26 -1 -60 11 -60 20 0
12 2 12 41 -6z m-256 -53 c-3 -3 -11 0 -18 7 -9 10 -8 11 6 5 10 -3 15 -9 12
-12z m-498 2 c-3 -3 -12 -4 -19 -1 -8 3 -5 6 6 6 11 1 17 -2 13 -5z m1730 -16
c-3 -8 -6 -5 -6 6 -1 11 2 17 5 13 3 -3 4 -12 1 -19z m27 7 c3 -8 1 -15 -4
-15 -6 0 -10 7 -10 15 0 8 2 15 4 15 2 0 6 -7 10 -15z m-1537 -32 c-3 -10 -5
-4 -5 12 0 17 2 24 5 18 2 -7 2 -21 0 -30z m-187 -7 c-5 -5 -27 -10 -49 -12
-36 -2 -41 0 -41 18 0 16 3 18 14 9 16 -14 66 -4 66 13 0 6 5 4 10 -4 5 -9 5
-19 0 -24z m543 17 c-7 -2 -19 -2 -25 0 -7 3 -2 5 12 5 14 0 19 -2 13 -5z m93
-10 c-4 -9 -1 -20 6 -24 22 -14 2 -20 -28 -8 -27 10 -27 12 -9 19 11 5 16 9
10 9 -5 1 -3 6 5 11 21 13 23 12 16 -7z m264 -41 c0 -10 -7 -27 -15 -38 -14
-18 -14 -17 -5 9 5 15 7 27 4 27 -3 0 -2 5 1 10 9 15 15 12 15 -8z m-174 -23
c3 -5 1 -9 -5 -9 -17 0 -41 12 -41 20 0 10 38 1 46 -11z m-196 -19 c0 -5 -5
-10 -11 -10 -5 0 -7 5 -4 10 3 6 8 10 11 10 2 0 4 -4 4 -10z m287 -14 c40 -15
52 -26 29 -26 -19 0 -96 37 -96 46 0 3 8 3 18 -1 9 -4 32 -13 49 -19z m230 18
c-3 -3 -12 -4 -19 -1 -8 3 -5 6 6 6 11 1 17 -2 13 -5z m-378 -20 c9 -9 -5 -11
-36 -7 -18 3 -30 10 -27 15 6 9 53 3 63 -8z m395 -9 c-4 -9 0 -15 10 -15 9 0
16 -4 16 -9 0 -5 16 -15 35 -21 19 -6 35 -15 35 -20 0 -10 -67 -2 -93 12 -9 5
-38 9 -64 10 -43 1 -45 2 -27 16 17 13 18 14 1 8 -11 -3 -29 -9 -42 -12 -15
-4 -22 -11 -18 -20 3 -8 1 -14 -5 -14 -6 0 -12 5 -14 11 -2 7 -11 7 -28 0 -18
-7 -20 -10 -7 -10 19 -1 20 -3 11 -24 -5 -13 -8 -13 -25 4 -23 23 -48 27 -29
4 10 -13 9 -15 -9 -15 -11 0 -21 -4 -21 -9 0 -5 -21 -14 -47 -20 -27 -7 -66
-21 -88 -33 -25 -13 -41 -16 -43 -9 -2 6 -9 8 -15 4 -7 -3 -3 4 8 16 36 41
114 74 290 122 22 6 51 15 65 20 68 22 111 24 104 4z m-429 -15 c13 -5 14 -9
5 -9 -8 0 -24 4 -35 9 -13 5 -14 9 -5 9 8 0 24 -4 35 -9z m2958 -42 c4 -10 8
-10 15 1 5 7 15 10 21 7 16 -10 14 -26 -3 -20 -8 3 -16 -4 -20 -18 -6 -23 -6
-23 -21 6 -18 33 -18 36 -6 36 5 0 12 -6 14 -12z m207 -15 c0 -5 -12 -16 -25
-26 -19 -13 -25 -15 -25 -4 0 7 5 18 12 25 13 13 38 16 38 5z m23 -60 c-3 -10
-10 -23 -14 -29 -10 -12 -79 -6 -79 8 0 5 12 7 28 3 21 -4 33 -1 47 15 22 25
26 25 18 3z m-3243 -37 c0 -2 -8 -10 -17 -17 -16 -13 -17 -12 -4 4 13 16 21
21 21 13z m20 -20 c0 -2 -8 -10 -17 -17 -16 -13 -17 -12 -4 4 13 16 21 21 21
13z m2975 -38 c-7 -31 -20 -47 -37 -48 -4 0 -3 12 3 28 6 15 10 28 10 30 -4
13 2 22 15 22 12 0 14 -7 9 -32z m-3060 -18 c-10 -11 -20 -18 -23 -15 -3 3 3
14 13 25 10 11 20 18 23 15 3 -3 -3 -14 -13 -25z m2852 -32 c-2 -13 -4 -5 -4
17 -1 22 1 32 4 23 2 -10 2 -28 0 -40z m-2580 36 c-3 -3 -12 -4 -19 -1 -8 3
-5 6 6 6 11 1 17 -2 13 -5z m-803 -20 c20 -8 20 -46 1 -84 -13 -25 -22 -30
-51 -30 -35 0 -36 1 -32 38 2 30 0 37 -14 36 -25 -2 -23 1 15 25 33 21 54 25
81 15z m56 -14 c0 -5 -4 -10 -10 -10 -5 0 -10 5 -10 10 0 6 5 10 10 10 6 0 10
-4 10 -10z m3357 -47 c-3 -10 -5 -2 -5 17 0 19 2 27 5 18 2 -10 2 -26 0 -35z
m-2952 -2 c-27 -28 -48 -40 -74 -43 -20 -3 -44 -8 -53 -12 -13 -6 -18 -4 -18
7 0 10 19 18 58 26 39 8 67 20 82 36 13 14 28 25 33 25 5 0 -8 -18 -28 -39z
m3045 14 c-7 -9 -15 -13 -18 -10 -3 2 1 11 8 20 7 9 15 13 18 10 3 -2 -1 -11
-8 -20z m-50 -19 c0 -8 -7 -16 -15 -20 -15 -5 -21 14 -8 27 11 12 23 8 23 -7z
m-3155 -46 c-2 -4 -25 -11 -50 -14 -25 -4 -45 -9 -45 -11 0 -3 9 -20 20 -40
15 -27 20 -54 20 -110 0 -43 -4 -75 -10 -75 -12 0 -10 -11 -21 90 -5 47 -12
102 -15 123 -6 35 -5 37 22 38 16 0 38 4 49 8 22 9 38 4 30 -9z m3136 -4 c-16
-19 -51 -28 -44 -10 4 11 20 19 47 23 5 0 3 -5 -3 -13z m-3011 -15 c0 -4 -14
-26 -31 -47 -17 -22 -54 -72 -83 -113 -33 -49 -52 -69 -54 -58 -5 25 44 108
100 171 47 53 68 67 68 47z m2237 -33 c-3 -8 -6 -5 -6 6 -1 11 2 17 5 13 3 -3
4 -12 1 -19z m-2562 -24 c6 -12 16 -28 22 -35 5 -8 13 -45 16 -82 7 -80 11
-87 42 -87 32 0 35 -18 10 -65 -65 -121 -110 -201 -115 -205 -4 -3 -13 -27
-21 -53 -8 -27 -19 -53 -26 -59 -19 -16 -16 -2 22 101 20 54 35 112 35 137 0
24 4 44 10 44 5 0 7 -13 4 -30 -10 -49 11 -35 45 30 37 70 37 76 11 83 -11 3
-20 2 -20 -1 0 -4 -11 -12 -25 -19 -14 -6 -25 -7 -25 -2 0 5 7 12 15 15 12 5
15 24 15 83 0 64 -3 79 -20 94 -11 9 -20 24 -20 32 0 8 -7 15 -16 15 -14 0
-14 -3 -4 -15 10 -12 10 -21 2 -40 -14 -30 -36 -34 -27 -5 4 12 1 27 -5 35 -6
8 -9 19 -5 25 3 5 1 10 -5 10 -6 0 -8 5 -5 11 12 19 79 6 90 -17z m-139 -15
c-14 -11 -28 -35 -32 -55 -3 -19 -10 -37 -15 -40 -16 -10 -7 -104 10 -104 4 0
7 10 7 23 -1 28 44 36 68 12 23 -24 21 -72 -5 -85 -15 -9 -18 -15 -10 -24 8
-10 5 -20 -14 -40 -14 -15 -26 -35 -26 -44 -1 -9 -2 -23 -3 -31 -2 -20 -46
-35 -46 -15 0 8 -5 12 -10 9 -6 -3 -10 -15 -10 -27 0 -15 5 -19 20 -15 19 5
26 -5 20 -28 -2 -5 -2 -37 -1 -70 1 -51 5 -63 27 -81 18 -15 22 -24 14 -29
-19 -12 -50 25 -50 60 0 38 -8 49 -26 34 -19 -16 -54 7 -54 35 0 13 11 61 24
107 13 46 26 98 28 114 2 21 8 30 21 29 19 -2 19 -2 11 20 -3 9 -10 13 -15 10
-10 -6 -12 148 -3 183 4 13 10 21 14 18 4 -3 11 7 14 21 4 13 17 29 29 33 34
13 41 2 13 -20z m344 -14 c-7 -9 -15 -13 -18 -10 -3 2 1 11 8 20 7 9 15 13 18
10 3 -2 -1 -11 -8 -20z m-302 -36 c7 -12 11 -23 8 -27 -7 -6 -46 27 -46 40 0
16 25 8 38 -13z m3458 -133 c3 -8 19 -16 35 -20 37 -7 133 -100 177 -171 18
-28 32 -43 32 -35 1 41 38 -59 46 -125 3 -27 3 -28 -6 -7 -5 12 -16 25 -24 28
-9 3 -12 13 -9 22 4 9 3 14 -2 10 -11 -10 -55 42 -49 57 8 19 -59 107 -112
148 -27 21 -70 49 -96 64 -27 14 -48 30 -48 35 0 14 50 9 56 -6z m-3399 -48
c-3 -8 -6 -5 -6 6 -1 11 2 17 5 13 3 -3 4 -12 1 -19z m13 -131 c0 -5 -4 -5
-10 -2 -5 3 -10 14 -10 23 0 15 2 15 10 2 5 -8 10 -19 10 -23z m3598 -106 c11
-16 24 -42 28 -57 7 -26 8 -26 16 -9 6 15 7 13 5 -12 -2 -18 0 -30 3 -28 13 8
30 -100 34 -210 2 -60 1 -82 -1 -48 -3 49 -7 61 -18 56 -8 -3 -15 -3 -15 0 0
3 -5 40 -11 83 -10 70 -41 153 -74 194 -7 8 -16 25 -19 38 -11 33 25 29 52 -7z
m72 -366 c0 -14 -2 -25 -4 -25 -2 0 -6 11 -8 25 -3 14 -1 25 3 25 5 0 9 -11 9
-25z"/>
<path d="M3043 3843 c26 -2 68 -2 95 0 26 2 4 3 -48 3 -52 0 -74 -1 -47 -3z"/>
<path d="M2852 3528 c2 -6 10 -14 16 -16 7 -2 10 2 6 12 -7 18 -28 22 -22 4z"/>
<path d="M2168 2983 c7 -3 16 -2 19 1 4 3 -2 6 -13 5 -11 0 -14 -3 -6 -6z"/>
<path d="M2145 2932 c-15 -20 -18 -39 -16 -82 2 -30 4 -65 3 -77 0 -15 6 -23
17 -23 9 0 22 -5 28 -11 6 -6 45 -13 85 -16 93 -5 111 -7 123 -15 13 -8 46 18
74 59 21 31 21 33 5 83 -9 29 -23 54 -30 57 -8 3 -14 13 -14 22 0 10 -3 12 -8
5 -4 -7 -26 -12 -49 -12 -31 -1 -43 4 -46 16 -4 16 -5 16 -6 0 -1 -15 -9 -17
-63 -13 -37 3 -67 11 -73 19 -8 11 -14 8 -30 -12z"/>
<path d="M2188 2683 c7 -3 16 -2 19 1 4 3 -2 6 -13 5 -11 0 -14 -3 -6 -6z"/>
<path d="M1761 2830 c0 -14 4 -32 9 -40 9 -13 10 -13 9 0 -1 8 -5 26 -9 40
l-8 25 -1 -25z"/>
<path d="M1715 2789 c-4 -11 -21 -26 -37 -33 l-30 -13 22 -16 c19 -14 21 -19
10 -32 -7 -8 -9 -15 -4 -16 5 0 -2 -5 -16 -12 l-25 -11 28 -4 c24 -3 32 -12
28 -34 0 -5 10 -8 24 -8 22 0 25 4 25 38 0 21 6 44 13 51 10 11 9 14 -2 18
-10 4 -10 7 -1 13 10 6 10 15 0 44 -13 41 -25 46 -35 15z"/>
<path d="M1411 2771 c-13 -23 9 -32 49 -20 25 7 25 7 -4 8 -24 1 -27 3 -16 16
10 12 10 15 -3 15 -9 0 -21 -9 -26 -19z"/>
<path d="M1580 2750 c20 -5 39 -5 45 1 5 5 -8 9 -35 8 l-45 -1 35 -8z"/>
<path d="M1300 2735 c-11 -13 -10 -14 3 -10 8 4 18 2 21 -4 6 -9 66 14 66 25
0 12 -79 2 -90 -11z"/>
<path d="M1526 2731 c-38 -4 -61 -11 -64 -20 -4 -11 2 -12 24 -7 34 9 32 9 67
7 15 0 27 -6 27 -12 0 -7 -9 -9 -24 -5 -15 4 -26 1 -29 -7 -3 -9 6 -13 30 -13
31 0 34 3 30 23 -2 13 0 23 4 23 5 0 9 5 9 10 0 6 -3 9 -7 8 -5 -1 -35 -4 -67
-7z"/>
<path d="M1323 2676 c4 -10 1 -16 -7 -16 -8 0 -13 -11 -12 -30 l1 -30 135 0
135 0 1 31 c1 27 -2 30 -25 27 -18 -2 -26 -9 -26 -23 0 -17 -8 -20 -57 -23
-47 -2 -58 0 -58 13 0 9 -9 15 -22 15 -30 0 -50 13 -46 30 2 7 -3 15 -11 18
-10 3 -12 0 -8 -12z"/>
<path d="M1448 2673 c7 -3 16 -2 19 1 4 3 -2 6 -13 5 -11 0 -14 -3 -6 -6z"/>
<path d="M1410 2660 c-9 -6 -10 -10 -3 -10 6 0 15 5 18 10 8 12 4 12 -15 0z"/>
<path d="M1768 2626 c3 -27 0 -35 -15 -39 -15 -4 -15 -5 3 -6 12 0 24 6 28 14
3 8 15 15 26 15 23 0 24 4 10 31 -6 10 -21 19 -33 19 -20 0 -22 -4 -19 -34z"/>
<path d="M1850 2620 c0 -5 5 -10 11 -10 5 0 7 5 4 10 -3 6 -8 10 -11 10 -2 0
-4 -4 -4 -10z"/>
<path d="M1658 2603 c7 -3 16 -2 19 1 4 3 -2 6 -13 5 -11 0 -14 -3 -6 -6z"/>
<path d="M1563 2536 c-10 -33 -9 -36 8 -36 20 0 24 20 10 54 -6 15 -9 12 -18
-18z"/>
<path d="M1800 2470 c0 -5 6 -10 14 -10 8 0 18 5 21 10 3 6 -3 10 -14 10 -12
0 -21 -4 -21 -10z"/>
<path d="M4173 2440 c0 -36 2 -50 4 -32 2 17 2 47 0 65 -2 17 -4 3 -4 -33z"/>
<path d="M478 2643 c7 -3 16 -2 19 1 4 3 -2 6 -13 5 -11 0 -14 -3 -6 -6z"/>
<path d="M470 2556 c0 -8 -5 -16 -10 -18 -11 -3 -2 -118 9 -118 3 0 7 34 9 75
1 41 0 75 -3 75 -3 0 -5 -6 -5 -14z"/>
<path d="M1569 2324 c-12 -14 -11 -16 5 -13 11 2 21 10 24 17 5 17 -13 15 -29
-4z"/>
<path d="M1268 1713 c7 -3 16 -2 19 1 4 3 -2 6 -13 5 -11 0 -14 -3 -6 -6z"/>
<path d="M876 1585 c-11 -8 -15 -15 -9 -15 6 0 16 7 23 15 16 19 11 19 -14 0z"/>
<path d="M187 1410 c-3 -11 -1 -20 4 -20 4 0 13 9 19 20 8 16 8 20 -3 20 -8 0
-17 -9 -20 -20z"/>
<path d="M180 1070 c0 -6 7 -13 15 -16 8 -4 12 -10 9 -15 -3 -5 -1 -9 4 -9 12
0 20 21 15 38 -6 14 -43 16 -43 2z"/>
<path d="M140 946 c0 -13 -3 -33 -7 -43 -6 -15 -4 -16 9 -5 21 17 29 72 11 72
-7 0 -13 -11 -13 -24z"/>
<path d="M3973 550 c0 -25 2 -35 4 -22 2 12 2 32 0 45 -2 12 -4 2 -4 -23z"/>
<path d="M27 4412 c98 -85 245 -203 249 -200 5 5 -262 228 -273 228 -4 0 6
-13 24 -28z"/>
<path d="M80 4030 c0 -5 5 -10 11 -10 5 0 7 5 4 10 -3 6 -8 10 -11 10 -2 0 -4
-4 -4 -10z"/>
<path d="M33 3995 c-14 -16 -17 -54 -5 -70 4 -5 16 -15 27 -21 12 -7 24 -29
30 -57 7 -34 13 -44 23 -38 14 9 8 67 -10 88 -7 9 -7 13 2 13 6 0 10 6 7 13
-2 6 -9 11 -14 10 -5 -1 -14 7 -21 17 -11 18 -10 19 13 10 21 -8 25 -7 25 10
0 34 -54 52 -77 25z"/>
<path d="M20 3865 c0 -8 -4 -15 -10 -15 -5 0 -7 -7 -3 -15 3 -9 8 -13 11 -10
8 8 14 55 7 55 -3 0 -5 -7 -5 -15z"/>
<path d="M41 3834 c0 -11 3 -14 6 -6 3 7 2 16 -1 19 -3 4 -6 -2 -5 -13z"/>
<path d="M1878 3813 c46 -2 118 -2 160 0 42 1 5 3 -83 3 -88 0 -123 -2 -77 -3z"/>
<path d="M51 3793 c-1 -12 -5 -25 -11 -28 -15 -9 -13 -78 3 -73 15 5 26 78 16
104 -7 17 -8 17 -8 -3z m-4 -65 c-3 -8 -6 -5 -6 6 -1 11 2 17 5 13 3 -3 4 -12
1 -19z"/>
<path d="M2285 3800 c3 -5 20 -10 36 -10 18 0 28 4 24 10 -3 6 -20 10 -36 10
-18 0 -28 -4 -24 -10z"/>
<path d="M75 3750 c-3 -5 -1 -10 4 -10 6 0 11 5 11 10 0 6 -2 10 -4 10 -3 0
-8 -4 -11 -10z"/>
<path d="M2791 3736 c4 -4 21 -11 39 -16 20 -6 30 -6 24 -1 -10 11 -72 27 -63
17z"/>
<path d="M11 3703 c-1 -6 -4 -20 -7 -30 -5 -17 -5 -17 6 0 6 10 9 23 6 30 -3
9 -5 9 -5 0z"/>
<path d="M992 3638 c2 -20 8 -32 16 -30 6 1 12 -2 12 -8 0 -5 -19 -13 -42 -16
l-41 -7 26 -21 c15 -12 27 -28 27 -35 0 -10 3 -11 14 -2 10 8 16 9 21 1 3 -5
0 -10 -7 -10 -11 0 -11 -2 0 -9 7 -4 36 -6 64 -3 34 3 49 1 45 -6 -10 -15 16
-22 86 -24 l62 -2 -75 -6 c-68 -6 -71 -7 -25 -9 45 -3 47 -4 20 -11 -30 -8
-30 -8 8 -9 23 -1 37 4 37 12 0 8 3 8 9 -2 7 -10 21 -12 57 -7 41 5 51 3 72
-16 14 -13 22 -18 19 -11 -4 6 -2 13 4 15 7 2 4 10 -7 18 -14 12 -16 12 -10 1
6 -9 5 -12 -4 -9 -24 8 -22 26 2 31 21 4 21 4 -4 6 -17 1 -29 8 -33 21 -6 19
-15 20 -135 20 -71 0 -135 3 -144 6 -9 3 -16 17 -16 31 0 26 29 83 42 83 4 0
8 9 8 20 0 18 -7 20 -56 20 l-55 0 3 -32z m191 -145 c-7 -2 -21 -2 -30 0 -10
3 -4 5 12 5 17 0 24 -2 18 -5z m74 1 c-3 -3 -12 -4 -19 -1 -8 3 -5 6 6 6 11 1
17 -2 13 -5z"/>
<path d="M1348 3643 c6 -2 18 -2 25 0 6 3 1 5 -13 5 -14 0 -19 -2 -12 -5z"/>
<path d="M1233 3623 c9 -2 23 -2 30 0 6 3 -1 5 -18 5 -16 0 -22 -2 -12 -5z"/>
<path d="M1328 3623 c12 -2 32 -2 45 0 12 2 2 4 -23 4 -25 0 -35 -2 -22 -4z"/>
<path d="M1260 3600 c20 -13 40 -13 40 0 0 6 -12 10 -27 10 -22 0 -25 -2 -13
-10z"/>
<path d="M1128 3593 c23 -2 59 -2 80 0 20 2 1 4 -43 4 -44 0 -61 -2 -37 -4z"/>
<path d="M3260 3591 c0 -6 5 -13 10 -16 6 -3 10 -1 10 5 0 5 14 9 30 8 17 -1
29 -7 27 -13 -2 -5 -11 -9 -20 -9 -10 1 -14 -3 -10 -9 4 -6 0 -8 -10 -4 -13 5
-17 1 -17 -17 0 -31 -32 -60 -48 -44 -18 18 -14 3 10 -39 27 -45 50 -73 60
-73 11 0 142 91 146 101 2 5 10 9 18 9 23 0 19 87 -5 100 -25 13 -201 13 -201
1z m184 -89 c-6 -8 -53 34 -54 47 0 8 12 2 28 -15 16 -16 28 -31 26 -32z"/>
<path d="M1084 3565 c-4 -9 -4 -18 -1 -22 3 -3 67 -5 142 -4 105 1 137 -2 141
-12 3 -8 10 -14 17 -13 15 0 51 36 37 36 -5 0 -9 6 -7 13 1 9 -37 13 -161 15
-140 2 -163 0 -168 -13z"/>
<path d="M950 3476 c0 -16 6 -26 14 -26 9 0 12 7 9 20 -8 31 -23 34 -23 6z"/>
<path d="M1068 3483 c7 -3 16 -2 19 1 4 3 -2 6 -13 5 -11 0 -14 -3 -6 -6z"/>
<path d="M1577 3473 c-10 -10 -8 -25 2 -18 5 3 11 -5 13 -17 3 -19 5 -17 9 10
5 30 -7 43 -24 25z"/>
<path d="M1620 3471 c0 -4 11 -6 25 -3 14 2 25 6 25 8 0 2 -11 4 -25 4 -14 0
-25 -4 -25 -9z"/>
<path d="M1687 3464 c8 -3 11 -15 6 -31 -8 -35 -35 -66 -44 -52 -3 6 -8 -1
-11 -14 -4 -21 0 -27 20 -32 18 -4 23 -11 20 -28 -3 -16 0 -23 12 -23 20 0 19
44 -2 57 -9 6 -8 9 5 15 13 4 17 18 17 51 l0 46 50 -6 c29 -4 50 -2 50 3 0 6
-12 10 -27 10 -16 0 -46 2 -68 5 -22 3 -34 3 -28 -1z"/>
<path d="M1055 3451 c-6 -5 -19 -11 -30 -14 -11 -3 5 -5 35 -4 30 0 43 2 27 4
-15 2 -25 9 -22 14 8 12 2 12 -10 0z"/>
<path d="M1613 3430 c1 -16 9 -26 22 -28 18 -2 18 -1 4 10 -9 7 -19 20 -22 28
-4 9 -6 5 -4 -10z"/>
<path d="M1458 3380 c-9 -85 3 -262 19 -267 8 -3 11 40 10 159 0 90 -3 143 -6
118 l-5 -45 -6 50 -5 50 -7 -65z"/>
<path d="M1665 3430 c-3 -5 -1 -10 4 -10 6 0 11 5 11 10 0 6 -2 10 -4 10 -3 0
-8 -4 -11 -10z"/>
<path d="M1503 3380 c0 -25 2 -35 4 -22 2 12 2 32 0 45 -2 12 -4 2 -4 -23z"/>
<path d="M1738 3394 c-5 -43 3 -104 13 -104 12 0 11 101 0 119 -7 11 -10 7
-13 -15z"/>
<path d="M1858 3413 c7 -3 16 -2 19 1 4 3 -2 6 -13 5 -11 0 -14 -3 -6 -6z"/>
<path d="M92 3398 c-14 -14 -16 -48 -3 -48 16 0 25 24 12 28 -11 4 -11 6 0 13
7 4 11 10 8 13 -3 3 -11 0 -17 -6z"/>
<path d="M964 3393 c-7 -11 -8 -46 -5 -93 4 -41 6 -105 6 -141 0 -37 5 -71 11
-77 8 -7 10 4 6 39 -8 83 8 239 24 239 8 0 14 5 14 11 0 6 -8 8 -19 4 -15 -4
-20 -1 -23 15 -3 19 -4 20 -14 3z"/>
<path d="M1180 3390 c0 -5 6 -10 13 -10 9 0 9 -2 0 -8 -7 -4 -15 -27 -19 -50
-4 -26 -12 -42 -20 -42 -17 0 -18 -11 -1 -34 7 -10 28 -18 50 -19 36 -2 37 -3
37 -39 l0 -38 -69 0 -70 0 -3 33 c-3 29 -6 32 -42 35 -36 3 -38 2 -26 -13 8
-10 23 -15 37 -12 23 4 23 3 21 -59 l-3 -64 58 0 c31 0 57 4 57 9 0 5 17 7 38
4 38 -5 39 -4 40 26 0 20 -4 31 -13 31 -10 0 -15 22 -19 78 -16 202 -16 203
-26 147 l-7 -40 -2 38 c-1 26 -6 37 -16 37 -8 0 -15 -4 -15 -10z m37 -107 c-3
-10 -5 -4 -5 12 0 17 2 24 5 18 2 -7 2 -21 0 -30z m8 -153 c3 -6 -4 -10 -17
-10 -18 0 -20 2 -8 10 19 12 18 12 25 0z"/>
<path d="M1266 3338 c5 -35 9 -87 9 -115 0 -30 4 -52 10 -50 6 1 12 -18 15
-43 4 -40 8 -45 33 -48 32 -4 35 10 6 39 -11 11 -18 24 -14 27 4 4 11 -2 17
-12 8 -15 12 -16 19 -5 8 12 11 12 19 -1 5 -8 10 -25 10 -37 0 -16 6 -23 18
-22 10 0 12 3 5 6 -9 3 -13 26 -13 64 0 44 -4 59 -14 59 -9 0 -12 -7 -9 -19 3
-10 0 -22 -6 -25 -6 -4 -11 0 -11 11 0 15 -2 16 -10 3 -9 -13 -10 -13 -10 0 0
13 -2 13 -9 1 -8 -12 -11 -12 -23 0 -9 9 -13 33 -11 72 2 37 -1 56 -7 52 -6
-4 -10 15 -10 49 0 35 -4 56 -11 56 -8 0 -9 -18 -3 -62z"/>
<path d="M1410 3340 c0 -33 4 -60 10 -60 5 0 8 27 7 60 -1 33 -5 60 -9 60 -4
0 -8 -27 -8 -60z"/>
<path d="M1530 3389 c0 -8 -3 -24 -6 -36 -5 -17 -2 -23 9 -23 12 0 14 8 10 33
-5 34 -13 50 -13 26z"/>
<path d="M1571 3384 c0 -11 3 -14 6 -6 3 7 2 16 -1 19 -3 4 -6 -2 -5 -13z"/>
<path d="M1850 3353 c0 -41 2 -45 14 -33 7 8 16 30 19 48 6 27 4 32 -13 32
-17 0 -20 -7 -20 -47z"/>
<path d="M1148 3359 c3 -20 8 -27 14 -21 11 11 2 52 -11 52 -4 0 -6 -14 -3
-31z"/>
<path d="M1379 3383 c-6 -32 -4 -173 1 -173 9 0 20 77 20 136 0 24 -4 44 -10
44 -5 0 -11 -3 -11 -7z"/>
<path d="M1773 3330 c0 -30 2 -43 4 -27 2 15 2 39 0 55 -2 15 -4 2 -4 -28z"/>
<path d="M1300 3360 c0 -5 5 -10 11 -10 5 0 7 5 4 10 -3 6 -8 10 -11 10 -2 0
-4 -4 -4 -10z"/>
<path d="M1091 3312 c2 -28 6 -52 10 -52 7 0 0 91 -8 100 -2 2 -3 -19 -2 -48z"/>
<path d="M1591 3334 c0 -11 3 -14 6 -6 3 7 2 16 -1 19 -3 4 -6 -2 -5 -13z"/>
<path d="M1812 3325 c0 -16 2 -22 5 -12 2 9 2 23 0 30 -3 6 -5 -1 -5 -18z"/>
<path d="M1000 3312 c0 -17 4 -34 10 -37 6 -4 7 6 3 27 -8 44 -13 48 -13 10z"/>
<path d="M1021 3313 c0 -10 4 -27 9 -38 6 -16 8 -14 7 13 0 18 -4 35 -9 38 -4
3 -8 -3 -7 -13z"/>
<path d="M1572 3280 c0 -19 2 -27 5 -17 2 9 2 25 0 35 -3 9 -5 1 -5 -18z"/>
<path d="M798 3293 c7 -3 16 -2 19 1 4 3 -2 6 -13 5 -11 0 -14 -3 -6 -6z"/>
<path d="M1510 3237 c3 -87 10 -137 21 -137 5 0 9 25 9 55 0 30 5 55 10 55 6
0 10 19 10 43 0 39 -2 43 -26 45 -25 2 -25 1 -24 -61z"/>
<path d="M683 3283 c9 -2 25 -2 35 0 9 3 1 5 -18 5 -19 0 -27 -2 -17 -5z"/>
<path d="M1050 3280 c0 -5 7 -10 15 -10 8 0 15 5 15 10 0 6 -7 10 -15 10 -8 0
-15 -4 -15 -10z"/>
<path d="M1318 3248 c-6 -51 -6 -51 23 -46 21 3 22 4 6 20 -14 14 -14 17 -2
22 22 8 19 46 -4 46 -15 0 -20 -9 -23 -42z"/>
<path d="M1593 3245 c0 -27 2 -38 4 -22 2 15 2 37 0 50 -2 12 -4 0 -4 -28z"/>
<path d="M3250 3281 c0 -6 4 -13 10 -16 6 -3 7 1 4 9 -7 18 -14 21 -14 7z"/>
<path d="M3310 3283 c0 -21 28 -46 44 -40 27 10 15 42 -17 45 -15 2 -27 -1
-27 -5z"/>
<path d="M610 3235 c0 -34 1 -35 38 -35 20 0 44 -5 52 -10 11 -7 4 -10 -25
-10 -48 0 -65 -14 -65 -51 0 -49 9 -59 54 -59 30 1 50 8 73 28 40 34 49 77 16
77 -12 0 -25 3 -28 7 -10 10 32 29 48 22 9 -3 25 0 36 6 17 9 22 8 28 -6 3 -9
1 -25 -5 -35 -15 -23 -16 -79 -2 -79 6 0 10 6 10 13 0 8 4 7 10 -3 7 -11 5
-18 -5 -26 -8 -6 -15 -16 -15 -22 0 -5 -8 -13 -17 -17 -17 -6 -17 -7 1 -21 35
-25 166 -13 166 15 0 6 -11 22 -25 37 -18 19 -25 39 -26 68 -1 64 -11 80 -50
80 -30 1 -34 4 -34 29 l1 27 -118 0 -118 0 0 -35z"/>
<path d="M3210 3261 c0 -5 6 -14 14 -20 12 -10 13 -8 9 8 -5 21 -23 30 -23 12z"/>
<path d="M1056 3241 c-3 -5 5 -11 18 -13 17 -4 23 -1 19 9 -6 15 -29 18 -37 4z"/>
<path d="M1572 3220 c0 -14 2 -19 5 -12 2 6 2 18 0 25 -3 6 -5 1 -5 -13z"/>
<path d="M1690 3223 c0 -13 5 -23 10 -23 13 0 13 11 0 30 -8 12 -10 11 -10 -7z"/>
<path d="M943 3175 c0 -27 2 -38 4 -22 2 15 2 37 0 50 -2 12 -4 0 -4 -28z"/>
<path d="M1110 3195 c0 -18 5 -25 20 -25 21 0 24 8 14 34 -10 25 -34 19 -34
-9z"/>
<path d="M3498 3213 c12 -2 30 -2 40 0 9 3 -1 5 -23 4 -22 0 -30 -2 -17 -4z"/>
<path d="M1174 3199 c-8 -14 5 -29 27 -29 10 0 19 6 19 14 0 16 -37 28 -46 15z"/>
<path d="M3295 3200 c-4 -7 -4 -15 1 -19 5 -3 9 -17 9 -30 0 -13 6 -26 14 -29
11 -4 13 3 8 33 -7 44 -21 63 -32 45z"/>
<path d="M3350 3188 c0 -4 4 -8 8 -8 4 0 6 -15 4 -34 -3 -27 1 -37 24 -55 25
-19 29 -20 37 -6 11 21 1 48 -15 39 -7 -4 -10 -4 -6 1 4 4 3 14 -3 21 -7 8 -7
14 1 19 18 11 10 23 -20 27 -16 3 -30 1 -30 -4z"/>
<path d="M3478 3183 c17 -2 47 -2 65 0 17 2 3 4 -33 4 -36 0 -50 -2 -32 -4z"/>
<path d="M1604 3154 c-4 -14 -2 -30 3 -35 5 -5 10 5 11 26 3 41 -5 46 -14 9z"/>
<path d="M2 3108 c6 -18 25 -20 31 -3 5 10 0 15 -14 15 -12 0 -19 -5 -17 -12z"/>
<path d="M1010 3094 c0 -8 5 -12 10 -9 6 4 8 11 5 16 -9 14 -15 11 -15 -7z"/>
<path d="M70 3091 c0 -6 5 -13 10 -16 6 -3 10 1 10 9 0 9 -4 16 -10 16 -5 0
-10 -4 -10 -9z"/>
<path d="M1371 3084 c0 -11 3 -14 6 -6 3 7 2 16 -1 19 -3 4 -6 -2 -5 -13z"/>
<path d="M1466 3085 c-3 -8 -1 -15 4 -15 6 0 10 7 10 15 0 8 -2 15 -4 15 -2 0
-6 -7 -10 -15z"/>
<path d="M3290 3091 c0 -5 7 -12 16 -15 14 -5 15 -4 4 9 -14 17 -20 19 -20 6z"/>
<path d="M750 3065 c0 -12 -13 -15 -59 -15 l-59 0 -6 -53 c-12 -91 10 -110 63
-57 20 20 32 26 37 19 5 -8 10 -7 16 5 5 9 18 16 30 16 17 0 18 2 8 15 -8 9
-10 29 -7 50 4 26 2 35 -9 35 -8 0 -14 -7 -14 -15z"/>
<path d="M3361 3058 c8 -15 9 -23 1 -26 -7 -2 -6 -12 3 -29 8 -15 12 -30 9
-35 -3 -4 0 -8 6 -8 7 0 10 6 7 14 -3 7 3 27 13 43 l18 30 -34 17 c-35 16 -35
16 -23 -6z"/>
<path d="M3 3051 c0 -11 5 -17 9 -15 11 7 10 34 -1 34 -6 0 -9 -9 -8 -19z"/>
<path d="M130 3036 l0 -37 32 17 c29 15 32 15 43 0 7 -9 17 -16 24 -16 7 0 11
-21 11 -57 -1 -46 -3 -54 -11 -40 -6 11 -9 32 -7 48 3 20 0 29 -9 29 -8 0 -16
6 -19 14 -9 24 -44 -14 -44 -47 0 -16 -5 -37 -11 -48 -15 -29 -2 -56 29 -62
15 -3 35 -9 44 -12 12 -5 18 0 21 17 4 21 4 21 6 -4 0 -14 -5 -29 -11 -32 -7
-3 -4 -5 7 -3 19 2 20 11 22 130 2 98 -1 126 -10 120 -16 -10 -57 -11 -51 -1
3 4 -4 8 -15 8 -10 0 -26 3 -35 6 -13 5 -16 -1 -16 -30z m50 10 c0 -3 -4 -8
-10 -11 -5 -3 -10 -1 -10 4 0 6 5 11 10 11 6 0 10 -2 10 -4z"/>
<path d="M31 3036 c-8 -10 -9 -16 -1 -21 5 -3 10 0 10 7 0 10 2 10 9 -1 6 -9
11 -10 15 -2 8 12 0 31 -13 31 -5 0 -14 -6 -20 -14z"/>
<path d="M3518 3033 c7 -3 16 -2 19 1 4 3 -2 6 -13 5 -11 0 -14 -3 -6 -6z"/>
<path d="M91 3004 c0 -11 3 -14 6 -6 3 7 2 16 -1 19 -3 4 -6 -2 -5 -13z"/>
<path d="M3413 3005 c-7 -21 -8 -21 67 -14 60 5 61 6 17 7 -29 1 -46 6 -42 12
3 6 -3 10 -15 10 -11 0 -23 -7 -27 -15z"/>
<path d="M3493 3013 c15 -2 39 -2 55 0 15 2 2 4 -28 4 -30 0 -43 -2 -27 -4z"/>
<path d="M2 2986 c13 -15 100 -36 96 -24 -2 6 -13 12 -24 13 -10 1 -32 6 -49
10 -17 4 -27 5 -23 1z"/>
<path d="M4321 2973 c-9 -10 -1 -13 44 -15 30 -1 64 -2 75 -2 11 -1 20 2 20 7
0 10 -2 11 -68 17 -41 4 -63 2 -71 -7z"/>
<path d="M3405 2960 c-3 -5 3 -10 14 -10 11 0 23 5 26 10 3 6 -3 10 -14 10
-11 0 -23 -4 -26 -10z"/>
<path d="M3468 2953 c6 -2 18 -2 25 0 6 3 1 5 -13 5 -14 0 -19 -2 -12 -5z"/>
<path d="M793 2880 c0 -41 2 -58 4 -37 2 20 2 54 0 75 -2 20 -4 3 -4 -38z"/>
<path d="M3405 2920 c-8 -13 5 -13 25 0 13 8 13 10 -2 10 -9 0 -20 -4 -23 -10z"/>
<path d="M0 2415 c0 -430 2 -506 14 -496 11 10 13 78 8 404 -3 215 -6 421 -6
457 l-1 65 33 -1 c27 -2 32 2 32 20 0 27 -18 46 -36 39 -8 -3 -21 0 -29 7 -13
11 -15 -47 -15 -495z"/>
<path d="M767 2883 c-3 -16 -1 -35 4 -43 6 -10 8 -2 9 28 0 48 -5 55 -13 15z"/>
<path d="M3325 2873 c5 -13 13 -23 18 -23 4 0 7 -11 7 -25 0 -14 5 -25 11 -25
12 0 3 37 -14 58 -15 18 0 27 19 11 14 -12 16 -11 13 5 -3 13 -13 19 -34 20
-28 1 -30 -1 -20 -21z"/>
<path d="M102 2850 c0 -14 2 -19 5 -12 2 6 2 18 0 25 -3 6 -5 1 -5 -13z"/>
<path d="M2834 2853 c-33 -30 -44 -66 -32 -107 19 -62 34 -69 167 -73 113 -4
120 -3 142 19 14 13 25 35 25 53 1 17 5 39 8 51 5 13 1 28 -11 42 -16 19 -31
22 -148 27 -116 5 -132 4 -151 -12z"/>
<path d="M3404 2818 c-3 -4 15 -8 40 -8 25 0 46 2 46 4 0 8 -82 11 -86 4z"/>
<path d="M43 2628 c4 -106 7 -203 7 -216 0 -13 4 -20 10 -17 6 4 10 -5 10 -19
0 -16 6 -26 15 -26 8 0 15 -6 15 -13 0 -8 -10 -13 -22 -13 -21 1 -23 -4 -25
-67 -2 -62 -1 -68 16 -62 16 5 20 -1 26 -34 4 -22 4 -44 2 -48 -3 -5 9 -8 26
-8 31 0 32 -2 40 -55 5 -30 10 -56 11 -58 2 -1 17 3 34 9 24 8 33 18 38 44 7
39 29 52 43 26 12 -21 5 -31 -21 -31 -27 0 -17 -23 13 -31 25 -6 18 -13 -26
-22 -15 -4 -13 -5 7 -6 49 -2 65 46 35 108 -10 21 -16 23 -59 18 -38 -5 -51
-2 -70 14 -21 19 -21 20 -3 14 24 -8 21 -8 73 -6 45 1 49 15 8 31 -13 5 -15 9
-6 9 17 1 40 45 40 76 0 12 -7 30 -15 41 -19 25 -19 48 0 40 13 -5 15 11 15
109 0 102 -2 117 -20 135 -22 22 -26 40 -10 40 6 0 10 -10 11 -22 1 -19 2 -18
10 7 10 31 9 164 -1 166 -3 0 -14 3 -25 5 -36 8 -80 14 -104 14 -13 0 -29 6
-35 14 -6 7 -24 17 -40 20 l-29 7 6 -193z m125 16 c-4 -39 -24 -41 -32 -3 -4
22 -2 35 6 40 19 12 30 -5 26 -37z m72 -149 c-15 -18 -6 -45 15 -45 8 0 15 -9
15 -20 0 -11 -4 -20 -9 -20 -5 0 -16 -13 -25 -30 -8 -16 -10 -30 -5 -30 6 0 7
-5 3 -11 -4 -8 -9 -7 -15 2 -5 8 -9 10 -9 4 0 -5 -5 -2 -11 8 -12 20 -2 60 12
52 5 -4 9 -1 9 4 0 6 -10 11 -23 11 -21 0 -23 4 -19 32 5 31 32 72 32 48 0
-19 30 16 31 37 1 13 3 11 6 -5 3 -13 -1 -30 -7 -37z m-10 41 c0 -3 -4 -8 -10
-11 -5 -3 -10 -1 -10 4 0 6 5 11 10 11 6 0 10 -2 10 -4z m-96 -68 c9 -12 16
-34 15 -48 0 -23 -1 -23 -12 7 -15 40 -27 52 -27 27 0 -10 9 -34 21 -53 16
-27 18 -36 7 -42 -33 -22 -61 7 -40 41 9 14 8 21 -3 30 -8 7 -15 20 -15 30 0
36 31 41 54 8z m36 -158 c0 -5 -6 -10 -12 -11 -10 0 -10 -2 0 -6 6 -2 12 -11
12 -18 0 -7 7 -15 15 -19 8 -3 15 -11 15 -17 0 -8 -5 -7 -17 2 -15 13 -15 12
-4 -8 6 -13 15 -22 19 -22 21 3 32 -3 32 -18 -1 -16 -2 -16 -16 2 -16 20 -16
20 -9 -2 4 -16 2 -23 -7 -23 -10 0 -9 -3 2 -10 9 -6 10 -10 3 -10 -21 0 -44
31 -38 51 5 15 1 19 -18 19 -25 0 -38 17 -36 48 0 12 3 10 9 -5 9 -23 30 -32
30 -13 0 6 -6 19 -12 30 -11 17 -10 22 2 30 19 13 30 12 30 0z m89 -34 c15
-28 8 -46 -18 -46 -20 0 -33 32 -24 56 8 21 28 17 42 -10z"/>
<path d="M192 2465 c2 -11 8 -20 15 -20 6 0 15 -3 19 -7 4 -5 12 -8 18 -8 6 0
-1 8 -14 17 -14 9 -29 22 -33 27 -5 7 -7 3 -5 -9z"/>
<path d="M175 2190 c3 -5 8 -10 11 -10 2 0 4 5 4 10 0 6 -5 10 -11 10 -5 0 -7
-4 -4 -10z"/>
<path d="M240 2254 c0 -8 5 -12 10 -9 6 4 8 11 5 16 -9 14 -15 11 -15 -7z"/>
<path d="M178 2813 c7 -3 16 -2 19 1 4 3 -2 6 -13 5 -11 0 -14 -3 -6 -6z"/>
<path d="M762 2800 c0 -14 2 -19 5 -12 2 6 2 18 0 25 -3 6 -5 1 -5 -13z"/>
<path d="M3478 2793 c6 -2 18 -2 25 0 6 3 1 5 -13 5 -14 0 -19 -2 -12 -5z"/>
<path d="M3473 2773 c15 -2 37 -2 50 0 12 2 0 4 -28 4 -27 0 -38 -2 -22 -4z"/>
<path d="M3415 2740 c3 -5 32 -9 63 -9 57 1 57 1 17 10 -56 11 -87 11 -80 -1z"/>
<path d="M783 2635 c0 -38 2 -53 4 -32 2 20 2 52 0 70 -2 17 -4 1 -4 -38z"/>
<path d="M3901 2673 c-2 -32 27 -43 106 -42 83 1 50 16 -39 18 -50 1 -57 3
-61 24 l-4 22 -2 -22z"/>
<path d="M662 2645 c0 -16 2 -22 5 -12 2 9 2 23 0 30 -3 6 -5 -1 -5 -18z"/>
<path d="M3343 2663 c9 -2 23 -2 30 0 6 3 -1 5 -18 5 -16 0 -22 -2 -12 -5z"/>
<path d="M3998 2663 c12 -2 30 -2 40 0 9 3 -1 5 -23 4 -22 0 -30 -2 -17 -4z"/>
<path d="M3678 2653 c28 -2 76 -2 105 0 28 2 5 3 -53 3 -58 0 -81 -1 -52 -3z"/>
<path d="M3320 2640 c-10 -7 5 -9 50 -9 48 1 58 3 40 9 -35 11 -72 11 -90 0z"/>
<path d="M3513 2643 c9 -3 17 -8 17 -12 0 -9 58 -2 65 8 2 4 -19 8 -48 8 -29
0 -44 -2 -34 -4z"/>
<path d="M3618 2626 c-15 -8 -40 -17 -57 -21 -33 -7 -34 -9 -51 -107 l-12 -68
-74 0 c-100 0 -114 -13 -114 -111 l0 -72 63 7 c77 9 103 25 126 79 26 60 39
67 112 65 35 0 76 2 90 6 20 6 32 2 56 -18 17 -14 37 -26 44 -26 8 0 26 -6 41
-14 36 -19 38 -13 38 155 l0 139 -117 0 c-82 0 -126 -4 -145 -14z"/>
<path d="M3968 2613 c12 -2 30 -2 40 0 9 3 -1 5 -23 4 -22 0 -30 -2 -17 -4z"/>
<path d="M3317 2595 c-14 -13 -48 -79 -60 -117 -4 -10 -2 -20 3 -23 6 -4 10
-46 10 -95 0 -49 4 -91 9 -95 6 -3 9 33 9 90 -1 52 2 99 6 103 4 4 44 7 89 7
l82 0 11 50 c23 97 25 95 -65 95 -57 0 -84 -4 -94 -15z"/>
<path d="M3920 2590 c-11 -7 -6 -10 20 -11 32 -1 33 -2 10 -9 -22 -7 -21 -8
13 -9 20 -1 37 4 37 9 0 6 12 10 28 11 l27 1 -25 8 c-36 11 -92 11 -110 0z"/>
<path d="M3162 2489 c-7 -10 -8 -19 -3 -19 13 0 33 28 23 33 -4 3 -13 -3 -20
-14z"/>
<path d="M3200 2470 c0 -5 9 -10 20 -10 11 0 20 5 20 10 0 6 -9 10 -20 10 -11
0 -20 -4 -20 -10z"/>
<path d="M3135 2410 c-3 -5 -2 -10 4 -10 5 0 13 5 16 10 3 6 2 10 -4 10 -5 0
-13 -4 -16 -10z"/>
<path d="M3192 2331 c2 -50 7 -93 10 -96 3 -4 16 0 27 7 20 12 21 21 19 93 -3
80 -3 80 -32 83 l-29 4 5 -91z"/>
<path d="M3117 2376 c-4 -9 3 -16 18 -20 20 -5 24 -13 28 -54 3 -39 4 -35 5
21 2 65 1 67 -22 67 -13 0 -26 -6 -29 -14z"/>
<path d="M768 2346 c-4 -19 -1 -23 11 -18 14 5 14 4 2 -12 -11 -13 -11 -20 -3
-28 12 -12 12 -13 16 51 1 32 -20 38 -26 7z"/>
<path d="M3094 2268 c-5 -7 -3 -8 7 -3 11 7 12 6 2 -6 -14 -17 -6 -59 11 -59
26 1 55 43 37 55 -5 3 -11 -2 -15 -10 -3 -8 -11 -15 -17 -15 -8 0 -8 4 1 15
12 14 6 35 -10 35 -5 0 -12 -5 -16 -12z"/>
<path d="M772 2205 c0 -16 2 -22 5 -12 2 9 2 23 0 30 -3 6 -5 -1 -5 -18z"/>
<path d="M3060 2170 c-13 -8 -13 -10 2 -10 9 0 20 5 23 10 8 13 -5 13 -25 0z"/>
<path d="M56 2161 c-4 -7 -5 -15 -2 -18 9 -9 19 4 14 18 -4 11 -6 11 -12 0z"/>
<path d="M854 2141 c3 -5 15 -7 26 -4 11 3 20 0 20 -6 0 -6 5 -11 11 -11 8 0
8 5 -1 15 -13 16 -65 21 -56 6z"/>
<path d="M4288 2143 c7 -3 16 -2 19 1 4 3 -2 6 -13 5 -11 0 -14 -3 -6 -6z"/>
<path d="M505 2109 c-4 -6 -5 -12 -2 -15 2 -3 7 2 10 11 7 17 1 20 -8 4z"/>
<path d="M4280 2091 c5 -11 10 -31 10 -45 0 -18 5 -26 18 -26 22 0 82 -30 125
-62 59 -44 57 -46 57 35 l0 74 -66 6 c-36 4 -80 13 -96 22 -44 22 -61 20 -48
-4z"/>
<path d="M59 2083 c-3 -41 -1 -115 3 -119 6 -6 68 16 68 24 0 4 -7 16 -15 26
-8 11 -15 32 -15 48 0 21 -4 26 -17 21 -11 -4 -14 -3 -9 5 4 7 2 12 -3 12 -6
0 -12 -8 -12 -17z"/>
<path d="M130 2060 c0 -8 5 -22 10 -30 9 -13 10 -13 10 0 0 8 -5 22 -10 30 -9
13 -10 13 -10 0z"/>
<path d="M1846 2001 c-18 -20 -19 -51 -1 -53 6 0 13 15 16 36 3 20 5 36 4 36
-1 0 -10 -9 -19 -19z"/>
<path d="M2959 1992 c-13 -15 -12 -16 3 -4 13 10 17 10 21 0 4 -9 6 -9 6 -1 2
20 -16 24 -30 5z"/>
<path d="M4260 1995 c0 -2 25 -16 57 -32 69 -35 88 -71 97 -192 5 -66 11 -88
26 -101 11 -10 20 -26 20 -37 0 -10 7 -28 15 -39 13 -17 14 -3 15 128 0 152
-4 178 -25 178 -7 0 -30 14 -51 31 -50 40 -89 60 -125 64 -16 2 -29 2 -29 0z
m220 -135 c0 -5 -9 -10 -19 -10 -11 0 -23 5 -26 10 -4 6 5 10 19 10 14 0 26
-4 26 -10z"/>
<path d="M215 1980 c3 -5 8 -10 11 -10 2 0 4 5 4 10 0 6 -5 10 -11 10 -5 0 -7
-4 -4 -10z"/>
<path d="M150 1950 c-23 -7 -23 -8 -3 -9 12 -1 25 4 28 9 3 6 5 10 3 9 -2 -1
-14 -5 -28 -9z"/>
<path d="M63 1925 c0 -8 7 -15 15 -15 7 0 12 5 10 12 -6 18 -25 21 -25 3z"/>
<path d="M1468 1863 c-13 -43 -21 -79 -17 -81 14 -6 135 30 199 60 77 36 77
35 63 49 -8 8 -20 7 -43 -4 -30 -15 -31 -15 -42 8 -10 23 -19 27 -99 41 l-36
6 -25 -79z"/>
<path d="M1737 1910 c3 -11 7 -20 9 -20 2 0 4 9 4 20 0 11 -4 20 -9 20 -5 0
-7 -9 -4 -20z"/>
<path d="M4300 1921 c0 -6 5 -11 11 -11 5 0 7 -4 4 -10 -3 -5 2 -10 12 -10 11
0 25 -6 32 -12 11 -11 11 -9 2 10 -7 12 -16 20 -22 17 -5 -4 -8 -1 -7 6 2 7
-5 15 -14 17 -10 2 -18 -1 -18 -7z"/>
<path d="M4259 1853 c-23 -62 -22 -72 11 -99 46 -39 102 -132 103 -171 1 -35
-27 -66 -52 -58 -9 4 -11 0 -7 -10 7 -20 -3 -19 -26 2 -15 13 -23 15 -36 6
-13 -7 -23 -6 -40 5 -20 13 -25 13 -32 1 -6 -8 -4 -16 3 -21 8 -5 5 -14 -9
-30 -12 -13 -26 -32 -32 -43 -10 -17 -11 -18 -12 -2 0 20 -11 22 -28 5 -6 -6
-15 -8 -19 -4 -5 4 -1 13 7 20 8 6 31 29 50 51 l35 38 -31 -21 c-17 -12 -34
-19 -36 -16 -8 7 -58 -18 -58 -29 0 -5 -11 -7 -25 -5 -30 6 -32 -5 -6 -31 10
-10 27 -53 37 -95 17 -74 17 -77 -1 -90 -10 -7 -15 -18 -11 -24 4 -7 1 -12 -8
-12 -10 0 -16 9 -16 26 0 15 -4 23 -10 19 -6 -4 -8 -15 -5 -26 4 -11 2 -19 -5
-19 -6 0 -9 -4 -6 -9 3 -4 -1 -17 -9 -27 -13 -17 -14 -13 -11 41 3 33 5 61 5
61 1 1 9 1 19 0 29 -2 28 56 -3 103 -28 45 -40 53 -30 20 5 -15 4 -19 -5 -14
-6 4 -9 17 -6 30 3 13 2 33 -2 45 l-8 21 -19 -21 c-13 -15 -19 -35 -19 -63 l2
-41 -15 27 c-18 36 -34 34 -85 -10 -24 -21 -54 -45 -66 -53 -22 -14 -22 -18
-11 -73 10 -46 18 -62 43 -79 17 -12 36 -29 43 -38 11 -13 14 -12 28 8 18 24
40 30 32 8 -3 -8 -1 -17 6 -19 9 -3 9 -8 0 -18 -18 -19 -16 -42 6 -71 11 -13
22 -41 26 -61 8 -42 11 -44 45 -17 24 19 24 21 -2 24 -18 2 -22 45 -5 52 8 3
12 14 10 27 -3 17 4 26 35 40 21 9 43 17 48 17 14 -1 -39 -40 -53 -40 -14 0
-18 -20 -4 -20 4 0 25 11 45 25 20 13 36 21 36 16 0 -13 -48 -61 -62 -61 -8 0
-9 -3 -1 -11 17 -17 68 15 111 70 35 46 76 69 88 50 2 -5 -14 -25 -36 -45 -22
-20 -39 -42 -37 -48 6 -15 -11 -46 -25 -46 -6 0 -5 6 3 17 13 15 12 15 -6 5
-11 -6 -40 -29 -65 -51 -25 -22 -48 -41 -52 -41 -5 0 -8 -6 -8 -14 0 -23 89
-12 140 18 30 17 60 26 90 26 42 0 43 1 27 17 -15 15 -22 16 -64 4 -26 -6 -56
-19 -65 -28 -16 -15 -18 -15 -18 0 0 8 16 25 36 37 28 18 45 21 83 17 l47 -6
22 50 c14 28 21 58 17 69 -3 11 -2 28 4 37 9 16 10 16 11 -4 0 -27 17 -31 23
-5 3 9 5 4 6 -13 1 -36 -22 -106 -35 -105 -5 0 -10 -18 -12 -41 -3 -40 -30
-77 -57 -79 -14 -1 -62 -40 -49 -40 13 0 126 73 141 91 6 8 14 28 17 45 4 17
18 46 31 64 18 24 22 40 18 66 -4 22 -2 34 6 34 6 0 11 -18 11 -42 0 -24 4
-49 9 -57 6 -9 5 -24 -2 -38 -8 -17 -7 -27 1 -35 15 -15 16 -48 2 -48 -5 0
-10 5 -10 10 0 19 -32 10 -37 -10 -3 -11 -11 -20 -18 -20 -6 0 -20 -10 -31
-22 l-19 -23 23 19 c18 16 26 17 47 8 29 -13 44 2 18 18 -16 9 -15 10 7 8 24
-3 25 -6 22 -54 -3 -50 -2 -52 29 -63 39 -13 49 -14 29 -1 -10 6 -11 10 -2 10
16 0 18 665 2 675 -6 4 -26 38 -46 77 -26 52 -38 92 -46 156 -6 48 -14 90 -18
94 -3 4 -27 12 -54 17 -45 8 -48 7 -57 -16z m139 -426 c22 -40 23 -55 3 -43
-5 3 -12 20 -16 36 -4 17 -11 30 -17 30 -6 0 -8 -11 -4 -27 l6 -28 -15 25
c-15 23 -15 23 -10 3 8 -29 -4 -50 -17 -32 -7 11 -8 9 -4 -4 3 -10 6 -24 6
-30 0 -7 7 -4 15 6 23 31 50 17 52 -27 2 -30 -2 -39 -17 -43 -11 -3 -24 -20
-30 -39 -11 -33 -30 -47 -30 -22 0 7 -7 2 -16 -10 -8 -12 -23 -22 -32 -22 -13
0 -12 3 6 16 24 17 27 35 12 64 -10 18 -12 18 -39 2 -17 -9 -33 -13 -37 -9
-10 9 26 36 48 37 9 0 19 10 23 23 3 12 16 47 27 78 27 71 53 76 86 16z m-462
-32 c9 -37 -2 -41 -14 -6 -7 18 -7 31 -2 31 5 0 12 -11 16 -25z m304 -225 c0
-5 -5 -10 -11 -10 -5 0 -7 5 -4 10 3 6 8 10 11 10 2 0 4 -4 4 -10z m-293 -32
c-3 -7 -5 -2 -5 12 0 14 2 19 5 13 2 -7 2 -19 0 -25z m163 12 c0 -11 -5 -20
-11 -20 -5 0 -7 5 -4 10 4 7 -3 9 -22 5 -27 -6 -27 -6 -9 9 27 22 46 20 46 -4z
m-139 -23 c-8 -8 -11 -7 -11 4 0 20 13 34 18 19 3 -7 -1 -17 -7 -23z m193 -52
c-7 -16 -24 -21 -24 -6 0 8 7 13 27 20 1 1 0 -6 -3 -14z"/>
<path d="M4305 1360 c3 -5 8 -10 11 -10 2 0 4 5 4 10 0 6 -5 10 -11 10 -5 0
-7 -4 -4 -10z"/>
<path d="M4297 1327 c-11 -29 -9 -43 4 -30 6 6 9 19 7 29 -3 18 -4 18 -11 1z"/>
<path d="M4315 1270 c-3 -5 -1 -10 4 -10 6 0 11 5 11 10 0 6 -2 10 -4 10 -3 0
-8 -4 -11 -10z"/>
<path d="M2870 1832 c0 -10 -5 -23 -12 -30 -6 -6 -8 -15 -4 -19 4 -4 11 -1 15
6 7 10 10 10 16 1 13 -21 24 11 12 37 -12 27 -27 30 -27 5z"/>
<path d="M3076 1515 c-3 -8 -12 -15 -20 -15 -13 0 -14 -4 -4 -25 6 -14 17 -25
23 -25 11 0 25 42 25 71 0 15 -17 10 -24 -6z"/>
<path d="M3112 1518 c3 -7 15 -15 28 -16 21 -3 22 -2 11 12 -16 19 -44 21 -39
4z"/>
<path d="M4144 1478 l-19 -23 23 19 c21 18 27 26 19 26 -2 0 -12 -10 -23 -22z"/>
<path d="M2964 1474 c3 -9 6 -25 6 -37 1 -21 1 -21 15 3 9 18 10 29 3 37 -15
18 -31 16 -24 -3z"/>
<path d="M3120 1439 c0 -10 6 -19 13 -20 55 -4 159 -32 164 -46 3 -7 13 -13
22 -12 10 0 11 2 4 6 -26 10 -12 25 19 21 28 -4 29 -4 13 8 -10 7 -38 16 -64
20 -43 5 -72 12 -143 34 -24 7 -28 5 -28 -11z"/>
<path d="M3048 1412 c-6 -23 5 -63 17 -65 17 -3 18 70 2 76 -9 3 -17 -1 -19
-11z"/>
<path d="M3380 1405 c17 -20 69 -45 94 -45 13 0 -2 12 -39 30 -70 34 -71 35
-55 15z"/>
<path d="M2967 1403 c-13 -12 -7 -43 8 -43 8 0 15 6 15 13 0 18 -15 38 -23 30z"/>
<path d="M2 1205 c0 -99 3 -160 8 -145 7 23 8 23 9 3 1 -12 -4 -25 -9 -28 -6
-3 -10 -25 -10 -48 0 -38 1 -39 15 -21 10 14 14 45 13 114 -1 72 -3 85 -8 55
-4 -23 -6 8 -3 70 2 61 0 124 -6 140 -7 22 -9 -16 -9 -140z"/>
<path d="M3000 1352 c-31 -21 -39 -31 -46 -62 -17 -64 -85 -99 -196 -100 -42
0 -79 -4 -82 -8 -3 -5 7 -28 21 -53 14 -24 39 -68 55 -97 17 -30 51 -77 77
-104 55 -59 66 -57 124 14 44 55 54 85 63 183 3 44 8 95 10 113 2 18 10 40 19
48 18 18 18 14 4 53 -13 35 -15 36 -49 13z m40 -53 c0 -6 -4 -7 -10 -4 -5 3
-10 11 -10 16 0 6 5 7 10 4 6 -3 10 -11 10 -16z"/>
<path d="M3515 1350 c3 -5 11 -10 16 -10 6 0 7 5 4 10 -3 6 -11 10 -16 10 -6
0 -7 -4 -4 -10z"/>
<path d="M3423 1319 c23 -13 87 -14 87 -1 0 4 -22 7 -49 7 -28 0 -44 -3 -38
-6z"/>
<path d="M3520 1296 c0 -9 7 -16 16 -16 17 0 14 22 -4 28 -7 2 -12 -3 -12 -12z"/>
<path d="M3664 1269 c-9 -16 18 -30 33 -17 7 6 10 14 7 19 -7 13 -31 11 -40
-2z"/>
<path d="M3700 1215 c0 -14 5 -25 10 -25 6 0 10 11 10 25 0 14 -4 25 -10 25
-5 0 -10 -11 -10 -25z"/>
<path d="M3630 1223 c0 -7 9 -17 20 -23 16 -9 20 -8 20 5 0 9 -5 13 -11 9 -6
-3 -15 0 -20 7 -6 10 -9 10 -9 2z"/>
<path d="M3841 1104 c0 -11 3 -14 6 -6 3 7 2 16 -1 19 -3 4 -6 -2 -5 -13z"/>
<path d="M40 960 c-6 -11 -8 -20 -6 -20 3 0 10 9 16 20 6 11 8 20 6 20 -3 0
-10 -9 -16 -20z"/>
<path d="M4140 930 c-29 -22 -46 -40 -38 -40 9 0 23 -3 32 -6 10 -4 16 -1 16
7 0 8 12 25 25 38 21 20 33 41 22 41 -2 0 -28 -18 -57 -40z"/>
<path d="M5 910 c-3 -5 -1 -10 4 -10 6 0 11 5 11 10 0 6 -2 10 -4 10 -3 0 -8
-4 -11 -10z"/>
<path d="M4310 890 c-44 -37 -62 -39 -29 -3 l24 26 -30 -16 c-81 -43 -104 -49
-177 -45 l-73 4 45 -88 c44 -86 46 -88 75 -83 l30 6 -25 -20 -25 -20 23 -46
c24 -49 28 -70 12 -60 -5 3 -10 2 -10 -2 0 -13 29 -50 30 -38 0 6 5 3 10 -5
13 -20 12 -33 -1 -24 -7 4 -10 1 -7 -6 7 -21 38 -21 38 0 0 10 4 21 9 24 4 3
11 -25 14 -62 3 -38 12 -84 21 -103 8 -19 29 -81 46 -139 17 -58 38 -124 46
-147 l16 -43 59 0 59 0 0 199 c0 190 -1 199 -20 204 -11 3 -20 10 -20 16 0 6
9 15 20 21 21 11 27 44 10 55 -7 4 -7 12 0 25 14 26 12 38 -3 18 -7 -9 -26
-18 -42 -20 -37 -4 -44 -25 -12 -37 14 -6 28 -15 32 -21 4 -7 -7 -5 -23 4 -41
21 -49 20 -27 -4 16 -17 16 -20 2 -20 -9 0 -19 4 -22 10 -3 6 -15 10 -25 10
-25 0 -45 36 -31 54 9 10 3 20 -23 40 -38 29 -76 34 -76 11 0 -8 -4 -15 -10
-15 -6 0 -6 9 -1 23 5 12 16 21 25 19 20 -4 20 5 1 24 -21 21 -19 31 8 38 l22
7 -22 11 c-24 12 -30 32 -12 43 6 4 37 7 69 8 54 0 57 1 47 19 -8 12 -9 21 -2
26 6 4 11 17 13 30 3 20 1 22 -15 14 -31 -16 -82 -22 -89 -11 -3 6 -17 8 -29
5 -13 -3 -26 -2 -29 3 -8 13 48 24 76 16 19 -6 21 -5 10 6 -10 11 -4 20 30 51
24 20 38 37 33 38 -6 0 -26 -13 -45 -30z"/>
<path d="M13 839 c-9 -9 -13 -48 -13 -119 0 -105 0 -107 25 -118 35 -16 40
-15 25 4 -8 9 -16 59 -19 130 -5 92 -8 113 -18 103z m9 -179 c3 -16 1 -30 -4
-30 -4 0 -8 14 -8 30 0 17 2 30 4 30 2 0 6 -13 8 -30z"/>
<path d="M4420 820 c0 -5 7 -10 16 -10 8 0 12 5 9 10 -3 6 -10 10 -16 10 -5 0
-9 -4 -9 -10z"/>
<path d="M4020 779 c7 -11 14 -19 16 -16 7 7 -7 37 -17 37 -6 0 -5 -9 1 -21z"/>
<path d="M4450 780 c0 -5 6 -10 14 -10 8 0 18 5 21 10 3 6 -3 10 -14 10 -12 0
-21 -4 -21 -10z"/>
<path d="M4460 708 c1 -12 7 -34 15 -48 15 -24 15 -24 13 19 -3 46 -28 73 -28
29z"/>
<path d="M4291 683 c6 -7 26 -15 45 -19 19 -3 38 -14 43 -23 5 -9 12 -13 16
-9 4 3 -6 20 -21 37 -22 25 -35 31 -60 29 -26 -2 -31 -5 -23 -15z"/>
<path d="M4414 674 c3 -9 6 -18 6 -20 0 -2 7 -4 15 -4 13 0 14 4 5 20 -13 24
-35 27 -26 4z"/>
<path d="M4470 610 c0 -5 5 -10 10 -10 6 0 10 5 10 10 0 6 -4 10 -10 10 -5 0
-10 -4 -10 -10z"/>
<path d="M4120 601 c0 -6 4 -13 10 -16 6 -3 7 1 4 9 -7 18 -14 21 -14 7z"/>
<path d="M0 538 l0 -53 20 25 c25 32 25 52 0 68 -19 12 -20 10 -20 -40z"/>
<path d="M70 580 c0 -5 5 -10 10 -10 6 0 10 5 10 10 0 6 -4 10 -10 10 -5 0
-10 -4 -10 -10z"/>
<path d="M85 552 c-6 -4 -15 -19 -22 -33 -10 -24 -10 -25 17 -21 15 2 30 -1
34 -6 7 -12 46 -4 46 9 0 5 -3 8 -7 8 -30 -5 -43 3 -43 26 0 26 -7 30 -25 17z"/>
<path d="M13 453 c-7 -2 -13 -19 -13 -36 0 -31 0 -31 15 -10 9 12 22 20 29 17
8 -3 17 0 22 7 5 9 9 7 15 -7 7 -17 8 -17 8 -1 1 24 -46 43 -76 30z"/>
<path d="M32 388 c-36 -22 -44 -45 -10 -27 27 14 52 38 46 44 -2 2 -18 -5 -36
-17z"/>
<path d="M4211 393 c-1 -12 4 -25 9 -28 12 -7 12 2 0 30 -8 19 -9 19 -9 -2z"/>
</g>
</svg>
